<svg width="41" height="40" viewBox="0 0 41 40" fill="none" xmlns="http://www.w3.org/2000/svg">
<path d="M32.1666 6.66659H30.4999V4.99992C30.4999 3.99992 29.8333 3.33325 28.8333 3.33325C27.8333 3.33325 27.1666 3.99992 27.1666 4.99992V6.66659H13.8333V4.99992C13.8333 3.99992 13.1666 3.33325 12.1666 3.33325C11.1666 3.33325 10.4999 3.99992 10.4999 4.99992V6.66659H8.83325C5.99992 6.66659 3.83325 8.83325 3.83325 11.6666V13.3333H37.1666V11.6666C37.1666 8.83325 34.9999 6.66659 32.1666 6.66659ZM3.83325 31.6666C3.83325 34.4999 5.99992 36.6666 8.83325 36.6666H32.1666C34.9999 36.6666 37.1666 34.4999 37.1666 31.6666V16.6666H3.83325V31.6666ZM28.8333 19.9999C29.8333 19.9999 30.4999 20.6666 30.4999 21.6666C30.4999 22.6666 29.8333 23.3333 28.8333 23.3333C27.8333 23.3333 27.1666 22.6666 27.1666 21.6666C27.1666 20.6666 27.8333 19.9999 28.8333 19.9999ZM28.8333 26.6666C29.8333 26.6666 30.4999 27.3333 30.4999 28.3333C30.4999 29.3333 29.8333 29.9999 28.8333 29.9999C27.8333 29.9999 27.1666 29.3333 27.1666 28.3333C27.1666 27.3333 27.8333 26.6666 28.8333 26.6666ZM20.4999 19.9999C21.4999 19.9999 22.1666 20.6666 22.1666 21.6666C22.1666 22.6666 21.4999 23.3333 20.4999 23.3333C19.4999 23.3333 18.8333 22.6666 18.8333 21.6666C18.8333 20.6666 19.4999 19.9999 20.4999 19.9999ZM20.4999 26.6666C21.4999 26.6666 22.1666 27.3333 22.1666 28.3333C22.1666 29.3333 21.4999 29.9999 20.4999 29.9999C19.4999 29.9999 18.8333 29.3333 18.8333 28.3333C18.8333 27.3333 19.4999 26.6666 20.4999 26.6666ZM12.1666 19.9999C13.1666 19.9999 13.8333 20.6666 13.8333 21.6666C13.8333 22.6666 13.1666 23.3333 12.1666 23.3333C11.1666 23.3333 10.4999 22.6666 10.4999 21.6666C10.4999 20.6666 11.1666 19.9999 12.1666 19.9999ZM12.1666 26.6666C13.1666 26.6666 13.8333 27.3333 13.8333 28.3333C13.8333 29.3333 13.1666 29.9999 12.1666 29.9999C11.1666 29.9999 10.4999 29.3333 10.4999 28.3333C10.4999 27.3333 11.1666 26.6666 12.1666 26.6666Z" fill="#C6742B"/>
</svg>
