<svg width="41" height="40" viewBox="0 0 41 40" fill="none" xmlns="http://www.w3.org/2000/svg">
<path d="M35.1953 10.1016H5.80469C5.18364 10.1034 4.58856 10.3509 4.14941 10.79C3.71026 11.2292 3.46275 11.8243 3.46094 12.4453V27.5547C3.46275 28.1757 3.71026 28.7708 4.14941 29.21C4.58856 29.6491 5.18364 29.8966 5.80469 29.8984H35.2031C35.8242 29.8966 36.4193 29.6491 36.8584 29.21C37.2975 28.7708 37.5451 28.1757 37.5469 27.5547V12.4453C37.5433 11.8235 37.2941 11.2282 36.8537 10.7892C36.4132 10.3502 35.8172 10.1031 35.1953 10.1016ZM36.0078 24.1719C36.0068 24.3715 35.9316 24.5636 35.7969 24.7109L32.6094 28.0781C32.5359 28.1554 32.4474 28.2167 32.3493 28.2583C32.2512 28.3 32.1456 28.3211 32.0391 28.3203H8.96875C8.86229 28.3203 8.75692 28.2989 8.65893 28.2573C8.56094 28.2157 8.47235 28.1547 8.39844 28.0781L5.21094 24.7109C5.07306 24.5656 4.99737 24.3722 5 24.1719V15.8281C5.00101 15.6285 5.07619 15.4364 5.21094 15.2891L8.39844 11.9219C8.47188 11.8446 8.56039 11.7833 8.65848 11.7417C8.75658 11.7 8.86218 11.6789 8.96875 11.6797H32.0781C32.1855 11.6786 32.2918 11.7003 32.3901 11.7434C32.4885 11.7865 32.5765 11.85 32.6484 11.9297L35.7969 15.2969C35.9302 15.4419 36.0053 15.6311 36.0078 15.8281V24.1719Z" fill="#C6742B"/>
<path d="M9.30469 13.2422L6.5625 16.1406V23.8594L9.30469 26.7578H31.7031L34.4453 23.8594V16.1328L31.7422 13.2344L9.30469 13.2422ZM22.5234 17.125H23.5938C23.801 17.125 23.9997 17.2073 24.1462 17.3538C24.2927 17.5003 24.375 17.699 24.375 17.9062C24.375 18.1135 24.2927 18.3122 24.1462 18.4587C23.9997 18.6052 23.801 18.6875 23.5938 18.6875H22.5234C22.3526 19.4099 21.9531 20.0579 21.3844 20.535C20.8158 21.0122 20.1083 21.2931 19.3672 21.3359L22.3672 24.1719C22.4811 24.279 22.56 24.4179 22.5938 24.5706C22.6275 24.7233 22.6144 24.8826 22.5562 25.0277C22.4979 25.1728 22.3973 25.297 22.2674 25.384C22.1376 25.4711 21.9845 25.5169 21.8281 25.5156C21.6283 25.5154 21.4359 25.4401 21.2891 25.3047L16.8672 21.125C16.7537 21.0171 16.6751 20.8777 16.6416 20.7247C16.6081 20.5717 16.6212 20.4122 16.6792 20.2667C16.7372 20.1213 16.8375 19.9965 16.9671 19.9086C17.0967 19.8207 17.2496 19.7736 17.4062 19.7734H19.1797C19.5387 19.7741 19.8903 19.6713 20.1923 19.4774C20.4944 19.2834 20.7341 19.0064 20.8828 18.6797H17.4141C17.2069 18.6797 17.0081 18.5974 16.8616 18.4509C16.7151 18.3044 16.6328 18.1056 16.6328 17.8984C16.6328 17.6912 16.7151 17.4925 16.8616 17.346C17.0081 17.1995 17.2069 17.1172 17.4141 17.1172H20.8828C20.7328 16.7914 20.4928 16.5154 20.191 16.3216C19.8892 16.1278 19.5383 16.0243 19.1797 16.0234H17.4062C17.199 16.0234 17.0003 15.9411 16.8538 15.7946C16.7073 15.6481 16.625 15.4494 16.625 15.2422C16.625 15.035 16.7073 14.8363 16.8538 14.6898C17.0003 14.5432 17.199 14.4609 17.4062 14.4609H23.5938C23.801 14.4609 23.9997 14.5432 24.1462 14.6898C24.2927 14.8363 24.375 15.035 24.375 15.2422C24.375 15.4494 24.2927 15.6481 24.1462 15.7946C23.9997 15.9411 23.801 16.0234 23.5938 16.0234H22.0547C22.2712 16.362 22.4296 16.7343 22.5234 17.125Z" fill="#C6742B"/>
</svg>
