<svg width="40" height="40" viewBox="0 0 40 40" fill="none" xmlns="http://www.w3.org/2000/svg">
<path fill-rule="evenodd" clip-rule="evenodd" d="M19.1048 4.81815C19.1775 5.13836 19.1864 5.46976 19.131 5.79341C19.0756 6.11707 18.957 6.42664 18.782 6.70446C18.6069 6.98227 18.3789 7.22288 18.1108 7.41254C17.8428 7.6022 17.54 7.7372 17.2198 7.80982C16.912 7.87982 16.6087 7.96093 16.3098 8.05315C15.996 8.15011 15.6662 8.18433 15.3393 8.15384C15.0123 8.12335 14.6945 8.02876 14.4041 7.87546C14.1137 7.72217 13.8563 7.51318 13.6467 7.26041C13.437 7.00765 13.2792 6.71607 13.1823 6.40232C13.0853 6.08857 13.0511 5.7588 13.0816 5.43182C13.1121 5.10485 13.2067 4.78709 13.36 4.49667C13.5132 4.20626 13.7222 3.94888 13.975 3.73923C14.2278 3.52959 14.5193 3.37178 14.8331 3.27482C15.2531 3.14482 15.6792 3.03093 16.1114 2.93315C16.4316 2.86044 16.763 2.85153 17.0867 2.90691C17.4103 2.9623 17.7199 3.0809 17.9977 3.25594C18.2755 3.43099 18.5162 3.65905 18.7058 3.9271C18.8955 4.19514 19.0305 4.49793 19.1031 4.81815M20.8931 4.81815C21.0401 4.17173 21.4379 3.61018 21.9989 3.257C22.56 2.90382 23.2383 2.78793 23.8848 2.93482C31.6798 4.69982 37.4998 11.6665 37.4998 19.9998C37.4998 29.6648 29.6648 37.4998 19.9998 37.4998C11.6681 37.4998 4.70143 31.6798 2.9331 23.8865C2.78635 23.2398 2.9025 22.5613 3.256 22.0003C3.60951 21.4392 4.17141 21.0416 4.8181 20.8948C5.46478 20.7481 6.14328 20.8642 6.70433 21.2177C7.26538 21.5712 7.66301 22.1331 7.80977 22.7798C8.30723 24.9574 9.3791 26.9618 10.9138 28.5847C12.4486 30.2076 14.3902 31.3895 16.5366 32.0077C18.683 32.6258 20.9558 32.6575 23.1186 32.0995C25.2814 31.5415 27.2552 30.4141 28.8346 28.8347C30.4141 27.2553 31.5414 25.2815 32.0994 23.1187C32.6575 20.9559 32.6258 18.683 32.0076 16.5366C31.3895 14.3902 30.2075 12.4487 28.5846 10.9139C26.9618 9.37915 24.9573 8.30729 22.7798 7.80982C22.1333 7.66278 21.5718 7.265 21.2186 6.70397C20.8654 6.14295 20.7495 5.46461 20.8964 4.81815M11.6331 7.30149C12.0835 7.78761 12.3225 8.43268 12.2975 9.09492C12.2725 9.75716 11.9855 10.3824 11.4998 10.8332C11.2698 11.0474 11.0474 11.2698 10.8331 11.4998C10.6099 11.7406 10.3414 11.935 10.043 12.072C9.7446 12.209 9.42215 12.2859 9.09405 12.2983C8.76595 12.3106 8.43862 12.2583 8.13076 12.1442C7.82289 12.03 7.54052 11.8564 7.29977 11.6332C7.05901 11.4099 6.86458 11.1414 6.72758 10.843C6.59059 10.5447 6.5137 10.2222 6.50132 9.8941C6.48894 9.566 6.5413 9.23868 6.65542 8.93081C6.76954 8.62295 6.94319 8.34058 7.16643 8.09982C7.46643 7.7776 7.77754 7.46649 8.09977 7.16649C8.34051 6.94321 8.62288 6.76955 8.93074 6.65541C9.23861 6.54128 9.56594 6.4889 9.89405 6.50129C10.2222 6.51367 10.5446 6.59056 10.843 6.72757C11.1414 6.86459 11.4099 7.06071 11.6331 7.30149ZM19.9998 9.16649C20.6628 9.16649 21.2987 9.42988 21.7675 9.89872C22.2364 10.3676 22.4998 11.0034 22.4998 11.6665V18.9648L26.7664 23.2315C27.0053 23.462 27.1959 23.7378 27.3271 24.0427C27.4582 24.3477 27.5273 24.6757 27.5304 25.0076C27.5334 25.3396 27.4703 25.6688 27.3448 25.9761C27.2192 26.2834 27.0337 26.5626 26.7991 26.7974C26.5645 27.0323 26.2854 27.2181 25.9782 27.3439C25.6711 27.4697 25.3419 27.5332 25.01 27.5304C24.678 27.5277 24.3499 27.4589 24.0448 27.328C23.7398 27.1971 23.4638 27.0068 23.2331 26.7682L18.2331 21.7682C18.0007 21.536 17.8163 21.2604 17.6905 20.957C17.5646 20.6535 17.4998 20.3283 17.4998 19.9998V11.6665C17.4998 11.0034 17.7632 10.3676 18.232 9.89872C18.7008 9.42988 19.3367 9.16649 19.9998 9.16649ZM6.39977 13.1832C6.7137 13.2798 7.00551 13.4373 7.25852 13.6468C7.51154 13.8563 7.72079 14.1135 7.87434 14.4039C8.02788 14.6943 8.1227 15.012 8.15337 15.3391C8.18404 15.6661 8.14997 15.996 8.0531 16.3098C7.96129 16.6102 7.88013 16.9137 7.80977 17.2198C7.66301 17.8665 7.26538 18.4284 6.70433 18.7819C6.14328 19.1354 5.46478 19.2516 4.8181 19.1048C4.17141 18.9581 3.60951 18.5604 3.256 17.9994C2.9025 17.4383 2.78635 16.7598 2.9331 16.1132C3.03088 15.6798 3.14477 15.2537 3.27477 14.8348C3.37157 14.521 3.52924 14.2294 3.73877 13.9766C3.94831 13.7237 4.2056 13.5147 4.49595 13.3613C4.7863 13.2079 5.10402 13.1132 5.43097 13.0827C5.75792 13.0521 6.08768 13.0862 6.40143 13.1832" fill="#C6742B"/>
</svg>
