<svg width="41" height="40" viewBox="0 0 41 40" fill="none" xmlns="http://www.w3.org/2000/svg">
<path d="M20.5001 3.33325C16.9651 3.33722 13.576 4.74325 11.0764 7.24288C8.57675 9.7425 7.17072 13.1316 7.16675 16.6666C7.16675 22.0916 11.1051 26.5966 15.2767 31.3649C16.5967 32.8749 17.9634 34.4366 19.1801 36.0166C19.3358 36.2186 19.5357 36.3821 19.7646 36.4947C19.9934 36.6072 20.2451 36.6657 20.5001 36.6657C20.7551 36.6657 21.0067 36.6072 21.2356 36.4947C21.4644 36.3821 21.6644 36.2186 21.8201 36.0166C23.0367 34.4366 24.4034 32.8749 25.7234 31.3649C29.8951 26.5966 33.8334 22.0916 33.8334 16.6666C33.8294 13.1316 32.4234 9.7425 29.9238 7.24288C27.4242 4.74325 24.0351 3.33722 20.5001 3.33325ZM20.5001 21.6666C19.5112 21.6666 18.5445 21.3733 17.7222 20.8239C16.9 20.2745 16.2591 19.4936 15.8807 18.58C15.5022 17.6664 15.4032 16.661 15.5962 15.6911C15.7891 14.7212 16.2653 13.8303 16.9645 13.1311C17.6638 12.4318 18.5547 11.9556 19.5246 11.7627C20.4945 11.5697 21.4999 11.6687 22.4135 12.0472C23.3271 12.4256 24.108 13.0665 24.6574 13.8887C25.2068 14.711 25.5001 15.6777 25.5001 16.6666C25.5001 17.9927 24.9733 19.2644 24.0356 20.2021C23.0979 21.1398 21.8262 21.6666 20.5001 21.6666Z" fill="#C6742B"/>
</svg>
