<svg width="41" height="40" viewBox="0 0 41 40" fill="none" xmlns="http://www.w3.org/2000/svg">
<path d="M39.2938 12.0688L27.4188 4.56884C27.216 4.43704 26.9793 4.36689 26.7375 4.36689C26.4957 4.36689 26.259 4.43704 26.0563 4.56884L21.75 7.45634V1.87509C21.7509 1.65525 21.6938 1.43907 21.5844 1.24835C21.4751 1.05763 21.3173 0.899128 21.1272 0.788828C20.937 0.678529 20.7211 0.620335 20.5012 0.620118C20.2814 0.619901 20.0654 0.677668 19.875 0.787591L6.75 8.28759C6.55925 8.39772 6.40098 8.5563 6.29123 8.74727C6.18147 8.93825 6.12413 9.15483 6.125 9.37509V23.2876L2.30625 25.8376C2.15992 25.9241 2.03277 26.0395 1.93258 26.1769C1.83239 26.3142 1.76126 26.4705 1.72354 26.6363C1.68582 26.802 1.68231 26.9737 1.71321 27.1409C1.74412 27.308 1.80879 27.4671 1.90328 27.6084C1.99777 27.7497 2.12009 27.8703 2.26276 27.9627C2.40543 28.0551 2.56545 28.1175 2.73304 28.146C2.90063 28.1744 3.07226 28.1684 3.23745 28.1283C3.40264 28.0882 3.5579 28.0148 3.69375 27.9126L4.25 27.5438V36.2501H3.1375C2.80598 36.2501 2.48804 36.3818 2.25362 36.6162C2.0192 36.8506 1.8875 37.1686 1.8875 37.5001C1.8875 37.8316 2.0192 38.1496 2.25362 38.384C2.48804 38.6184 2.80598 38.7501 3.1375 38.7501H38C38.3315 38.7501 38.6495 38.6184 38.8839 38.384C39.1183 38.1496 39.25 37.8316 39.25 37.5001C39.25 37.1686 39.1183 36.8506 38.8839 36.6162C38.6495 36.3818 38.3315 36.2501 38 36.2501H37.375V18.1251C37.375 17.7936 37.2433 17.4756 37.0089 17.2412C36.7745 17.0068 36.4565 16.8751 36.125 16.8751C35.7935 16.8751 35.4755 17.0068 35.2411 17.2412C35.0067 17.4756 34.875 17.7936 34.875 18.1251V36.2501H24.875V27.5626L25.4563 27.9313C25.7364 28.1087 26.0755 28.1675 26.399 28.0948C26.7225 28.0222 27.0039 27.824 27.1813 27.5438C27.3586 27.2637 27.4174 26.9246 27.3448 26.6011C27.2721 26.2776 27.0739 25.9962 26.7938 25.8188L19.25 21.0563V12.5001C19.2496 12.3858 19.2327 12.2721 19.2 12.1626L26.75 7.11259L37.9375 14.1813C38.2176 14.3587 38.5568 14.4175 38.8803 14.3448C39.2038 14.2722 39.4851 14.074 39.6625 13.7938C39.8399 13.5137 39.8987 13.1746 39.826 12.8511C39.7533 12.5276 39.5551 12.2462 39.275 12.0688H39.2938ZM22.375 26.2501V36.2501H20.5V29.3751C20.5 29.0436 20.3683 28.7256 20.1339 28.4912C19.8995 28.2568 19.5815 28.1251 19.25 28.1251H9.25C8.91848 28.1251 8.60054 28.2568 8.36612 28.4912C8.1317 28.7256 8 29.0436 8 29.3751V36.2501H6.75V26.2501C6.74958 26.1358 6.73274 26.0221 6.7 25.9126L14.25 20.8626L22.375 26.0001C22.3654 26.0831 22.3654 26.167 22.375 26.2501Z" fill="#C6742B"/>
</svg>
