<svg width="25" height="31" viewBox="0 0 25 31" fill="none" xmlns="http://www.w3.org/2000/svg">
<path d="M9.8812 28.1733C10.6892 28.84 11.5319 29.4493 12.3945 30.044C13.2591 29.4572 14.0976 28.833 14.9079 28.1733C16.2585 27.0643 17.5297 25.8617 18.7119 24.5746C21.4372 21.5946 24.3945 17.2746 24.3945 12.4253C24.3945 10.8494 24.0841 9.289 23.4811 7.83309C22.878 6.37718 21.9941 5.05431 20.8798 3.94001C19.7655 2.82571 18.4426 1.9418 16.9867 1.33874C15.5308 0.735682 13.9704 0.425293 12.3945 0.425293C10.8187 0.425293 9.25824 0.735682 7.80233 1.33874C6.34642 1.9418 5.02355 2.82571 3.90925 3.94001C2.79495 5.05431 1.91103 6.37718 1.30798 7.83309C0.70492 9.289 0.394531 10.8494 0.394531 12.4253C0.394531 17.2746 3.35186 21.5933 6.0772 24.5746C7.25936 25.8622 8.53049 27.0638 9.8812 28.1733ZM12.3945 16.7586C11.2453 16.7586 10.1431 16.3021 9.3304 15.4894C8.51775 14.6768 8.0612 13.5746 8.0612 12.4253C8.0612 11.276 8.51775 10.1738 9.3304 9.36116C10.1431 8.54851 11.2453 8.09196 12.3945 8.09196C13.5438 8.09196 14.646 8.54851 15.4587 9.36116C16.2713 10.1738 16.7279 11.276 16.7279 12.4253C16.7279 13.5746 16.2713 14.6768 15.4587 15.4894C14.646 16.3021 13.5438 16.7586 12.3945 16.7586Z" fill="#C6742B"/>
</svg>
