<svg width="33" height="33" viewBox="0 0 33 33" fill="none" xmlns="http://www.w3.org/2000/svg">
<path d="M16.2274 0.971436C24.9721 0.971436 32.0607 8.06002 32.0607 16.8048C32.0607 25.5495 24.9721 32.6381 16.2274 32.6381C7.48263 32.6381 0.394043 25.5495 0.394043 16.8048C0.394043 8.06002 7.48263 0.971436 16.2274 0.971436ZM16.2274 7.30477C15.8075 7.30477 15.4047 7.47158 15.1078 7.76852C14.8109 8.06545 14.644 8.46818 14.644 8.8881V16.8048C14.6441 17.2247 14.811 17.6273 15.108 17.9242L19.858 22.6742C20.1566 22.9626 20.5565 23.1222 20.9717 23.1186C21.3868 23.115 21.7839 22.9485 22.0775 22.6549C22.3711 22.3613 22.5376 21.9642 22.5412 21.5491C22.5448 21.1339 22.3852 20.734 22.0968 20.4354L17.8107 16.1493V8.8881C17.8107 8.46818 17.6439 8.06545 17.347 7.76852C17.05 7.47158 16.6473 7.30477 16.2274 7.30477Z" fill="#C6742B"/>
</svg>
