<svg viewBox="0 0 129 128" fill="none" xmlns="http://www.w3.org/2000/svg">
<g filter="url(#filter0_d_904_2462)">
<rect x="4.75" width="120" height="120" rx="25" fill="white" fill-opacity="0.5" shape-rendering="crispEdges"/>
<rect x="5.25" y="0.5" width="119" height="119" rx="24.5" stroke="#ECC19A" shape-rendering="crispEdges"/>
<path d="M37.75 42H91.75V78H37.75V42ZM64.75 51C67.1369 51 69.4261 51.9482 71.114 53.636C72.8018 55.3239 73.75 57.6131 73.75 60C73.75 62.3869 72.8018 64.6761 71.114 66.364C69.4261 68.0518 67.1369 69 64.75 69C62.3631 69 60.0739 68.0518 58.386 66.364C56.6982 64.6761 55.75 62.3869 55.75 60C55.75 57.6131 56.6982 55.3239 58.386 53.636C60.0739 51.9482 62.3631 51 64.75 51ZM49.75 48C49.75 49.5913 49.1179 51.1174 47.9926 52.2426C46.8674 53.3679 45.3413 54 43.75 54V66C45.3413 66 46.8674 66.6321 47.9926 67.7574C49.1179 68.8826 49.75 70.4087 49.75 72H79.75C79.75 70.4087 80.3821 68.8826 81.5074 67.7574C82.6326 66.6321 84.1587 66 85.75 66V54C84.1587 54 82.6326 53.3679 81.5074 52.2426C80.3821 51.1174 79.75 49.5913 79.75 48H49.75Z" fill="#C6742B"/>
</g>
<defs>
<filter id="filter0_d_904_2462" x="0.75" y="0" width="128" height="128" filterUnits="userSpaceOnUse" color-interpolation-filters="sRGB">
<feFlood flood-opacity="0" result="BackgroundImageFix"/>
<feColorMatrix in="SourceAlpha" type="matrix" values="0 0 0 0 0 0 0 0 0 0 0 0 0 0 0 0 0 0 127 0" result="hardAlpha"/>
<feOffset dy="4"/>
<feGaussianBlur stdDeviation="2"/>
<feComposite in2="hardAlpha" operator="out"/>
<feColorMatrix type="matrix" values="0 0 0 0 0 0 0 0 0 0 0 0 0 0 0 0 0 0 0.25 0"/>
<feBlend mode="normal" in2="BackgroundImageFix" result="effect1_dropShadow_904_2462"/>
<feBlend mode="normal" in="SourceGraphic" in2="effect1_dropShadow_904_2462" result="shape"/>
</filter>
</defs>
</svg>
