<svg viewBox="0 0 129 128" fill="none" xmlns="http://www.w3.org/2000/svg">
<g filter="url(#filter0_d_904_2417)">
<rect x="4.75" width="120" height="120" rx="25" fill="white" fill-opacity="0.5" shape-rendering="crispEdges"/>
<rect x="5.25" y="0.5" width="119" height="119" rx="24.5" stroke="#ECC19A" shape-rendering="crispEdges"/>
<g clip-path="url(#clip0_904_2417)">
<path d="M96.25 68.9999C96.2545 66.7469 95.6951 64.5286 94.6228 62.5471C93.5504 60.5656 91.9991 58.8841 90.1104 57.6557C88.2217 56.4273 86.0556 55.6911 83.8095 55.5143C81.5634 55.3375 79.3088 55.7256 77.2511 56.6433C75.1935 57.561 73.3982 58.9792 72.029 60.7684C70.6598 62.5577 69.7601 64.6611 69.4121 66.8871C69.064 69.1131 69.2786 71.3908 70.0363 73.5127C70.794 75.6345 72.0707 77.5329 73.75 79.0349V95.9999L82.75 91.7384L91.75 95.9999V79.0349C93.1645 77.7735 94.2966 76.2275 95.0721 74.4982C95.8476 72.7689 96.249 70.8952 96.25 68.9999ZM87.25 88.8899L82.75 86.7592L78.25 88.8899V81.7124C81.1585 82.7604 84.3415 82.7604 87.25 81.7124V88.8899ZM82.75 77.9999C80.9699 77.9999 79.2299 77.4721 77.7498 76.4832C76.2698 75.4942 75.1162 74.0886 74.4351 72.4441C73.7539 70.7996 73.5756 68.99 73.9229 67.2441C74.2702 65.4983 75.1273 63.8947 76.386 62.636C77.6447 61.3773 79.2483 60.5201 80.9942 60.1729C82.74 59.8256 84.5496 60.0038 86.1941 60.685C87.8387 61.3662 89.2443 62.5198 90.2332 63.9998C91.2221 65.4799 91.75 67.2199 91.75 68.9999C91.747 71.386 90.7978 73.6734 89.1106 75.3606C87.4235 77.0478 85.136 77.997 82.75 77.9999Z" fill="#C6742B"/>
<path d="M85 35.25H78.25V33C78.2464 31.8076 77.7712 30.6651 76.928 29.822C76.0849 28.9788 74.9424 28.5036 73.75 28.5H55.75C54.5576 28.5036 53.4151 28.9788 52.572 29.822C51.7288 30.6651 51.2536 31.8076 51.25 33V35.25H44.5C43.3076 35.2536 42.1651 35.7288 41.322 36.572C40.4788 37.4151 40.0036 38.5576 40 39.75V87C40.0036 88.1924 40.4788 89.3349 41.322 90.178C42.1651 91.0212 43.3076 91.4964 44.5 91.5H64.75V87H44.5V39.75H51.25V46.5H78.25V39.75H85V51H89.5V39.75C89.4964 38.5576 89.0212 37.4151 88.178 36.572C87.3349 35.7288 86.1924 35.2536 85 35.25ZM73.75 42H55.75V33H73.75V42Z" fill="#C6742B"/>
</g>
</g>
<defs>
<filter id="filter0_d_904_2417" x="0.75" y="0" width="128" height="128" filterUnits="userSpaceOnUse" color-interpolation-filters="sRGB">
<feFlood flood-opacity="0" result="BackgroundImageFix"/>
<feColorMatrix in="SourceAlpha" type="matrix" values="0 0 0 0 0 0 0 0 0 0 0 0 0 0 0 0 0 0 127 0" result="hardAlpha"/>
<feOffset dy="4"/>
<feGaussianBlur stdDeviation="2"/>
<feComposite in2="hardAlpha" operator="out"/>
<feColorMatrix type="matrix" values="0 0 0 0 0 0 0 0 0 0 0 0 0 0 0 0 0 0 0.25 0"/>
<feBlend mode="normal" in2="BackgroundImageFix" result="effect1_dropShadow_904_2417"/>
<feBlend mode="normal" in="SourceGraphic" in2="effect1_dropShadow_904_2417" result="shape"/>
</filter>
<clipPath id="clip0_904_2417">
<rect width="72" height="72" fill="white" transform="translate(28.75 24)"/>
</clipPath>
</defs>
</svg>
