<svg width="31" height="32" viewBox="0 0 31 32" fill="none" xmlns="http://www.w3.org/2000/svg">
<path d="M29.0014 0.690033H1.70815C1.26082 0.690033 0.831806 0.867734 0.515496 1.18404C0.199186 1.50036 0.0214844 1.92936 0.0214844 2.37669V29.6699C0.0214844 30.1173 0.199186 30.5463 0.515496 30.8626C0.831806 31.1789 1.26082 31.3566 1.70815 31.3566H16.3974V19.4733H12.4108V14.8733H16.3974V11.4233C16.3148 10.6134 16.4105 9.79513 16.6776 9.02603C16.9447 8.25693 17.3769 7.55558 17.9437 6.97118C18.5106 6.38677 19.1985 5.93347 19.9591 5.64305C20.7197 5.35263 21.5346 5.23214 22.3467 5.29002C23.5402 5.28178 24.7331 5.34322 25.9194 5.47402V9.614H23.4814C21.5494 9.614 21.1814 10.534 21.1814 11.868V14.8273H25.7814L25.1834 19.4273H21.1814V31.3566H29.0014C29.2229 31.3566 29.4422 31.313 29.6468 31.2282C29.8515 31.1434 30.0374 31.0192 30.194 30.8626C30.3507 30.706 30.4749 30.52 30.5597 30.3154C30.6444 30.1108 30.688 29.8914 30.688 29.6699V2.37669C30.6881 2.1552 30.6444 1.93587 30.5597 1.73124C30.4749 1.5266 30.3507 1.34067 30.194 1.18404C30.0374 1.02742 29.8515 0.903185 29.6468 0.818423C29.4422 0.73366 29.2229 0.690033 29.0014 0.690033Z" fill="#420C03"/>
</svg>
