<svg viewBox="0 0 129 128" fill="none" xmlns="http://www.w3.org/2000/svg">
<g filter="url(#filter0_d_904_2441)">
<rect x="4.75" width="120" height="120" rx="25" fill="white" fill-opacity="0.5" shape-rendering="crispEdges"/>
<rect x="5.25" y="0.5" width="119" height="119" rx="24.5" stroke="#ECC19A" shape-rendering="crispEdges"/>
<g clip-path="url(#clip0_904_2441)">
<path d="M96.25 37.5V82.5H33.25V37.5H96.25ZM100.75 33H28.75V87H100.75V33Z" fill="#C6742B"/>
<path d="M69.2496 46.5H91.7496V51H69.2496V46.5ZM69.2496 55.5H91.7496V60H69.2496V55.5ZM69.2496 64.5H78.2496V69H69.2496V64.5ZM57.9996 46.5C55.2996 46.5 53.0496 49.2 51.2496 51C49.4496 49.2 47.1996 46.5 44.4996 46.5C37.7496 46.5 35.0496 55.05 39.9996 59.55L51.2496 69L62.4996 59.55C67.4496 55.05 64.7496 46.5 57.9996 46.5Z" fill="#C6742B"/>
</g>
</g>
<defs>
<filter id="filter0_d_904_2441" x="0.75" y="0" width="128" height="128" filterUnits="userSpaceOnUse" color-interpolation-filters="sRGB">
<feFlood flood-opacity="0" result="BackgroundImageFix"/>
<feColorMatrix in="SourceAlpha" type="matrix" values="0 0 0 0 0 0 0 0 0 0 0 0 0 0 0 0 0 0 127 0" result="hardAlpha"/>
<feOffset dy="4"/>
<feGaussianBlur stdDeviation="2"/>
<feComposite in2="hardAlpha" operator="out"/>
<feColorMatrix type="matrix" values="0 0 0 0 0 0 0 0 0 0 0 0 0 0 0 0 0 0 0.25 0"/>
<feBlend mode="normal" in2="BackgroundImageFix" result="effect1_dropShadow_904_2441"/>
<feBlend mode="normal" in="SourceGraphic" in2="effect1_dropShadow_904_2441" result="shape"/>
</filter>
<clipPath id="clip0_904_2441">
<rect width="72" height="72" fill="white" transform="translate(28.75 24)"/>
</clipPath>
</defs>
</svg>
