<svg width="16" height="16" viewBox="0 0 16 16" fill="none" xmlns="http://www.w3.org/2000/svg">
<path d="M8.77101 0.5C9.61472 0.50225 10.0429 0.50675 10.4127 0.51725L10.5582 0.522499C10.7262 0.528499 10.8919 0.535999 11.0921 0.544999C11.8901 0.582498 12.4346 0.708495 12.9123 0.893741C13.4073 1.08424 13.8243 1.34223 14.2412 1.75847C14.6227 2.13326 14.9178 2.5868 15.1059 3.08744C15.2912 3.56518 15.4172 4.10966 15.4547 4.90839C15.4637 5.10789 15.4712 5.27363 15.4772 5.44238L15.4817 5.58788C15.4929 5.95687 15.4974 6.38511 15.4989 7.22884L15.4997 7.78832V8.7708C15.5015 9.31784 15.4957 9.86488 15.4824 10.4118L15.4779 10.5573C15.4719 10.726 15.4644 10.8917 15.4554 11.0912C15.4179 11.89 15.2904 12.4337 15.1059 12.9122C14.9178 13.4128 14.6227 13.8664 14.2412 14.2412C13.8665 14.6227 13.4129 14.9178 12.9123 15.1059C12.4346 15.2911 11.8901 15.4171 11.0921 15.4546L10.5582 15.4771L10.4127 15.4816C10.0429 15.4921 9.61472 15.4974 8.77101 15.4989L8.21154 15.4996H7.22984C6.68256 15.5016 6.13528 15.4958 5.58817 15.4824L5.44268 15.4779C5.26464 15.4711 5.08665 15.4634 4.9087 15.4546C4.11074 15.4171 3.56627 15.2911 3.0878 15.1059C2.58744 14.9177 2.13418 14.6226 1.75961 14.2412C1.37784 13.8665 1.08248 13.4129 0.894157 12.9122C0.708916 12.4345 0.582922 11.89 0.545424 11.0912L0.522925 10.5573L0.519176 10.4118C0.505351 9.86489 0.499101 9.31785 0.500427 8.7708V7.22884C0.498351 6.6818 0.503851 6.13476 0.516926 5.58788L0.522176 5.44238C0.528175 5.27363 0.535675 5.10789 0.544674 4.90839C0.582172 4.10966 0.708166 3.56593 0.893407 3.08744C1.08217 2.5866 1.37805 2.13304 1.76036 1.75847C2.13471 1.37714 2.58771 1.08204 3.0878 0.893741C3.56627 0.708495 4.10999 0.582498 4.9087 0.544999C5.10819 0.535999 5.27469 0.528499 5.44268 0.522499L5.58817 0.518C6.13504 0.504674 6.68206 0.498924 7.22909 0.50075L8.77101 0.5ZM8.00005 4.24991C7.00554 4.24991 6.05176 4.64499 5.34853 5.34823C4.64531 6.05148 4.25024 7.00528 4.25024 7.99982C4.25024 8.99436 4.64531 9.94816 5.34853 10.6514C6.05176 11.3546 7.00554 11.7497 8.00005 11.7497C8.99456 11.7497 9.94834 11.3546 10.6516 10.6514C11.3548 9.94816 11.7499 8.99436 11.7499 7.99982C11.7499 7.00528 11.3548 6.05148 10.6516 5.34823C9.94834 4.64499 8.99456 4.24991 8.00005 4.24991ZM8.00005 5.74987C8.29551 5.74982 8.58808 5.80797 8.86107 5.921C9.13406 6.03402 9.38211 6.19971 9.59107 6.4086C9.80002 6.61749 9.96579 6.8655 10.0789 7.13846C10.192 7.41141 10.2503 7.70398 10.2503 7.99944C10.2504 8.29491 10.1922 8.58749 10.0792 8.86049C9.96617 9.13348 9.80048 9.38154 9.5916 9.5905C9.38271 9.79947 9.13471 9.96524 8.86176 10.0784C8.58881 10.1915 8.29626 10.2497 8.0008 10.2498C7.40409 10.2498 6.83182 10.0127 6.40989 9.59077C5.98795 9.16882 5.75091 8.59654 5.75091 7.99982C5.75091 7.4031 5.98795 6.83081 6.40989 6.40887C6.83182 5.98692 7.40409 5.74987 8.0008 5.74987M11.9381 3.12494C11.6895 3.12494 11.451 3.22371 11.2752 3.39952C11.0994 3.57533 11.0006 3.81378 11.0006 4.06241C11.0006 4.31105 11.0994 4.5495 11.2752 4.72531C11.451 4.90112 11.6895 4.99989 11.9381 4.99989C12.1867 4.99989 12.4252 4.90112 12.601 4.72531C12.7768 4.5495 12.8756 4.31105 12.8756 4.06241C12.8756 3.81378 12.7768 3.57533 12.601 3.39952C12.4252 3.22371 12.1867 3.12494 11.9381 3.12494Z" fill="#420C03"/>
</svg>
