<svg  viewBox="0 0 1080 1081" fill="none" xmlns="http://www.w3.org/2000/svg">
<g clip-path="url(#clip0_1659_2542)">
<rect width="1080" height="1080" transform="translate(0 0.559998)" fill="#ECC19A"/>
<path d="M965.983 1032.07C966.665 993.353 968.139 906.986 968.699 872.962C969.034 852.608 969.636 835.627 970.037 835.227C970.437 834.826 970.679 876.552 970.574 927.951C970.47 979.35 970.478 1023.57 970.595 1026.22C971.232 1040.87 970.197 1048.23 967.503 1048.23C966.103 1048.23 965.762 1044.62 965.983 1032.07ZM930.912 1041.44C929.739 1040.69 864.974 1040.12 772.702 1040.04C686.779 1039.97 614.312 1039.73 611.663 1039.52C609.015 1039.31 561.965 1038.94 507.107 1038.7C444.688 1038.42 410.197 1037.81 414.932 1037.07C419.094 1036.42 471.097 1036.29 530.494 1036.78C705.76 1038.22 933.423 1037.63 938.041 1035.71C940.966 1034.5 942.824 1034.48 945.342 1035.63C950.358 1037.91 949.451 1039.62 942.873 1040.29C939.657 1040.62 936.097 1041.29 934.962 1041.79C933.827 1042.29 932.005 1042.13 930.912 1041.44ZM108.83 1040.39C101.357 1039.52 98.0939 1038.47 99.3448 1037.32C101.046 1035.77 194.814 1037.27 194.814 1038.85C194.814 1039.6 179.381 1039.94 157.325 1039.7C136.706 1039.47 118.288 1039.64 116.397 1040.08C114.505 1040.51 111.1 1040.65 108.83 1040.39ZM221.242 1038.35C219.948 1037.84 260.677 1037.48 311.752 1037.55C362.826 1037.63 402.447 1037.9 399.799 1038.15C390.26 1039.08 223.539 1039.27 221.242 1038.35ZM106.639 1014.97C106.569 1014.73 106.245 987.13 105.919 953.648C105.52 912.664 105.786 892.772 106.734 892.772C107.641 892.772 108.245 903.174 108.43 922.006C108.898 969.412 109.9 1003.12 111.077 1011.04C111.432 1013.43 110.867 1014.58 109.174 1014.93C107.85 1015.19 106.709 1015.22 106.639 1014.97ZM385.698 1013.73C382.641 1011.95 382.535 1004.78 385.456 997.475C387.466 992.452 387.416 990.854 384.768 975.262C381.406 955.465 381.26 950.657 383.833 944.498C386.508 938.096 390.92 935.42 398.798 935.42C409.278 935.42 417.357 941.176 421.745 951.768C423.052 954.924 423.993 955.724 425.209 954.714C427.702 952.646 428.995 954.807 426.768 957.32C425.57 958.672 424.65 963.659 424.337 970.501C423.935 979.264 422.969 983.33 419.593 990.449C411.143 1008.27 395.166 1019.24 385.698 1013.73ZM402.75 1007.51C412.965 1000.43 421.723 982.899 421.778 969.421C421.809 962.179 421.588 961.581 419.335 962.787C415.252 964.972 397.915 983.171 395.328 987.988C393.768 990.892 392.92 995.505 392.92 1001.09C392.92 1005.92 392.315 1009.71 391.545 1009.71C390.152 1009.71 389.632 1007.8 390.099 1004.41C390.24 1003.39 389.937 1001.53 389.426 1000.28C388.612 998.294 388.359 998.354 387.367 1000.77C385.632 1004.98 385.843 1010.77 387.761 1011.6C390.846 1012.94 397.561 1011.1 402.75 1007.51ZM391.33 963.966C391.027 953.596 391.351 947.964 392.233 948.256C392.997 948.509 393.914 956.131 394.296 965.404L394.984 982.096L407.733 969.545C421.675 955.819 421.829 955.363 415.389 946.768C411.136 941.092 405.501 938.171 398.798 938.171C384.723 938.171 381.965 950.213 389.029 980.819C390.535 987.344 390.846 987.818 391.29 984.258C391.572 981.988 391.59 972.857 391.33 963.966ZM658.744 1011.7C655.203 1009.21 654.691 1002.01 657.578 995.264C659.07 991.777 658.964 989.644 656.896 981.507C650.607 956.76 650.837 945.647 657.784 938.701C662.523 933.962 673.666 934.013 678.449 938.797C683.159 943.507 682.769 948.875 677.104 957.293L672.382 964.31H675.874C677.795 964.31 681.622 962.557 684.379 960.414C691.467 954.906 692.833 954.243 692.823 956.319C692.817 957.309 690.577 959.642 687.845 961.504L682.876 964.888L688.325 967.202C699.54 971.965 703.226 981.527 698.279 993.025C693.156 1004.94 680.33 1013.75 668.031 1013.81C664.573 1013.82 660.442 1012.88 658.744 1011.7ZM678.609 1008.43C686.686 1004.76 694.85 996.147 696.532 989.52C699.172 979.12 693.044 969.839 683.214 969.35C679.156 969.148 677.943 970.1 671.226 978.756L663.754 988.386L664.653 999.314C665.466 1009.19 665.343 1010.07 663.371 1008.43C662.123 1007.4 661.181 1004.49 661.169 1001.63C661.153 997.902 660.811 997.162 659.814 998.704C657.959 1001.57 658.11 1007.46 660.089 1009.43C662.551 1011.9 672.112 1011.38 678.609 1008.43ZM660.985 964.769C660.627 950.827 660.938 945.822 662.182 945.407C663.438 944.988 663.959 949.567 664.246 963.549L664.629 982.25L670.557 974.656L676.484 967.062H671.67C665.469 967.062 664.289 965.047 668.769 962.112C672.686 959.545 679.074 949.534 679.074 945.961C679.074 940.153 669.305 936.199 661.939 939.026C658.433 940.371 655.687 947.065 655.686 954.268C655.685 960.954 659.654 983.571 660.829 983.571C661.18 983.571 661.25 975.11 660.985 964.769ZM630.419 1010.05C630.039 1008.73 629.304 1000.37 628.785 991.481L627.842 975.316L619.409 975.337C605.579 975.368 605.214 975.619 603.405 986.346C602.535 991.507 602.024 998.349 602.272 1001.55C602.562 1005.32 602.114 1007.58 601.001 1007.97C598.848 1008.72 598.675 992.688 600.739 983.735C602.391 976.567 601.796 975.62 597.188 978.086C594.59 979.476 593.33 979.547 592.151 978.368C590.557 976.774 593.53 974.993 599.836 973.764C601.856 973.371 603.197 970.452 605.71 960.979C609.98 944.889 614.032 937.485 618.569 937.485C623.291 937.485 626.533 944.607 628.552 959.417L630.157 971.191H634.668C637.148 971.191 639.178 971.81 639.178 972.567C639.178 973.323 637.254 973.942 634.902 973.942H630.627L631.519 988.044C632.01 995.799 632.751 1004.47 633.165 1007.3C633.927 1012.53 631.753 1014.71 630.419 1010.05ZM626.229 970.839C627.481 969.587 624.289 949.76 621.91 944.018C619.49 938.177 617.819 938.377 614.486 944.909C612.034 949.716 606.16 968.589 606.16 971.66C606.16 973.052 624.778 972.29 626.229 970.839ZM564.429 1010.17C562.944 1008.68 563.37 993.662 565.52 971.726C566.624 960.459 567.854 947.276 568.254 942.43C569.02 933.143 569.442 931.919 571.448 933.159C572.163 933.601 572.219 937.589 571.58 942.583C569.738 956.972 566.264 996.068 566.264 1002.4C566.264 1008.18 566.382 1008.33 570.735 1008.33C573.194 1008.33 580.008 1006.85 585.877 1005.04C591.747 1003.23 596.864 1002.26 597.25 1002.88C598.193 1004.41 597.345 1004.82 586.411 1008.19C577.202 1011.02 566.265 1012 564.429 1010.17ZM489.566 1001.25C486.857 998.539 487.545 993.771 491.286 989.324C493.62 986.55 494.725 983.575 494.725 980.063C494.725 975.138 494.604 974.999 492.209 977.167C489.045 980.031 486.471 980.091 486.471 977.302C486.471 975.363 486.181 975.363 483.413 977.302C479.455 980.074 474.559 980.038 472.985 977.226C471.888 975.266 471.086 975.444 466.082 978.755C462.967 980.816 460.037 983.707 459.57 985.178C459.069 986.758 457.783 987.648 456.431 987.35C454.137 986.846 453.974 986.047 455.376 982.195C455.789 981.06 455.301 979.045 454.29 977.718C452.548 975.429 452.118 975.453 445.952 978.18C437.476 981.929 432.817 980.939 432.817 975.388C432.817 969.034 438.775 964.437 440.656 969.34C441.207 970.774 440.449 972.493 438.608 973.984C437 975.285 436.015 976.68 436.418 977.083C438.171 978.836 451.759 973.087 454.958 969.24C456.3 967.627 458.036 966.942 459.43 967.477C462.463 968.641 462.358 971.419 459.3 970.905C456.291 970.4 455.271 975.58 457.944 977.798C459.391 979 461.399 978.286 466.794 974.653C473.94 969.841 475.465 969.756 475.465 974.169C475.465 977.256 477.968 977.401 482.038 974.55C483.719 973.372 485.095 972.891 485.095 973.48C485.095 974.07 486.083 973.142 487.291 971.417C488.937 969.068 490.574 968.388 493.826 968.704C497.979 969.107 498.159 969.379 498.041 975.043L497.917 980.96L503.544 975.621C510.141 969.362 515.565 968.361 518.692 972.827C520.497 975.403 521.239 975.587 524.259 974.211C527.939 972.534 528.863 973.646 526.093 976.417C523.462 979.047 518.634 978.335 516.301 974.972L514.153 971.877L512.392 976.348C510.468 981.233 508.853 982.008 507.569 978.663C506.044 974.688 497.897 984.228 496.849 991.216C495.723 998.724 492.072 1003.75 489.566 1001.25ZM493.307 993.201C493.307 991.367 493.159 991.367 491.974 993.201C491.24 994.336 490.64 996.193 490.64 997.328C490.64 999.162 490.788 999.162 491.974 997.328C492.707 996.193 493.307 994.336 493.307 993.201ZM492.786 971.543C491.832 970.589 489.222 972.527 489.222 974.19C489.222 975.102 490.012 974.998 491.319 973.913C492.472 972.956 493.133 971.889 492.786 971.543ZM472.713 966.374C472.713 965.113 473.379 964.303 474.192 964.574C475.006 964.845 475.671 965.655 475.671 966.374C475.671 967.093 475.006 967.903 474.192 968.174C473.379 968.445 472.713 967.635 472.713 966.374ZM517.425 909.774C493.712 907.071 486.099 905.847 470.65 902.257C451.631 897.837 442.548 895.013 418.372 885.998C394.08 876.941 378.021 868.246 344.807 846.164C327.653 834.76 321.699 829.729 301.815 809.839C286.324 794.344 278.734 785.783 278.734 783.805V780.857L281.829 783.643C283.532 785.176 286.008 786.812 287.332 787.279C288.656 787.747 289.74 789.302 289.74 790.735C289.74 792.24 297.736 801.423 308.656 812.46C327.573 831.58 337.572 839.126 376.412 863.598C388.051 870.932 413.431 883.096 417.146 883.122C418.742 883.132 424.836 885.354 430.688 888.058C444.789 894.573 483.707 903.778 509.171 906.622C541.489 910.231 584.11 906.967 618.694 898.236C640.222 892.801 643.028 893.662 622.567 899.424C598.909 906.087 564.81 910.701 541.079 910.45C530.339 910.337 519.695 910.032 517.425 909.774ZM166.301 906.529C166.188 905.016 166.615 903.778 167.251 903.778C168.927 903.778 186.195 877.766 188.029 872.48C188.882 870.02 190.139 868.008 190.821 868.008C191.504 868.008 192.062 868.348 192.062 868.765C192.062 870.637 182.093 888.098 174.475 899.568C172.747 902.17 171.624 905.06 171.98 905.989C172.336 906.917 171.688 908.038 170.539 908.479C167.197 909.761 166.522 909.45 166.301 906.529ZM907.791 908.37C906.846 907.988 906.072 906.848 906.072 905.836C906.072 902.607 890.737 871.972 888.736 871.204C886.676 870.413 886.039 866.633 887.966 866.633C888.601 866.633 889.841 868.026 890.72 869.728C891.6 871.431 894.499 876.538 897.163 881.078C899.827 885.618 903.215 891.977 904.691 895.209C906.167 898.44 908.32 901.447 909.475 901.89C910.63 902.333 911.575 904.178 911.575 905.988C911.575 909.29 910.988 909.659 907.791 908.37ZM528.89 902.954C527.702 900.68 529.389 868.008 530.695 868.008C531.417 868.008 531.902 873.891 531.801 881.422C531.702 888.799 532.001 895.782 532.464 896.938C533.379 899.222 529.954 904.989 528.89 902.954ZM544.756 886.925C545.77 864.667 545.922 864.456 546.994 883.829C547.934 900.822 547.69 903.778 545.348 903.778C544.483 903.778 544.267 897.638 544.756 886.925ZM516.204 894.531C515.823 894.15 510.108 893.123 503.505 892.248C496.901 891.373 491.264 889.953 490.977 889.093C490.599 887.96 492.01 887.879 496.105 888.799C499.212 889.497 506.168 890.244 511.562 890.458C516.969 890.674 521.59 891.51 521.861 892.323C522.368 893.842 517.439 895.766 516.204 894.531ZM550.687 894.621C549.091 893.024 549.662 891.396 551.818 891.396C552.953 891.396 553.885 890.931 553.889 890.364C553.893 889.796 560.313 889.254 568.157 889.157C576.821 889.051 585.054 888.14 589.131 886.837C592.822 885.656 601.686 883.722 608.827 882.537C615.969 881.353 624.368 879.147 627.49 877.635C630.613 876.124 634.508 874.887 636.146 874.887C637.784 874.887 643.005 873.369 647.749 871.514C652.493 869.659 661.637 866.197 668.069 863.822C680.09 859.383 691.664 853.421 699.153 847.81C701.494 846.056 703.85 844.621 704.387 844.621C704.925 844.621 709.093 842.089 713.65 838.994C718.206 835.9 722.196 833.63 722.516 833.949C723.367 834.8 713.56 842.424 707.965 845.262C705.317 846.605 702.221 848.508 701.086 849.491C697.789 852.347 681.644 861.186 675.635 863.426C654.497 871.304 643.257 875.258 638.49 876.492C635.464 877.276 631.021 878.79 628.618 879.857C626.215 880.925 616.816 883.338 607.73 885.22C598.645 887.102 589.573 889.265 587.57 890.027C585.567 890.788 579.49 891.73 574.064 892.119C561.755 893.002 558.075 893.475 554.471 894.635C552.902 895.14 551.2 895.135 550.687 894.621ZM641.013 891.766C641.5 890.977 644.183 889.903 646.975 889.38C659.81 886.972 693.645 870.406 717.595 854.804C727.233 848.526 749.635 831.526 752.546 828.281C753.987 826.675 755.786 825.36 756.542 825.36C759.963 825.36 738.007 843.825 721.03 855.225C697.109 871.289 636.587 898.927 641.013 891.766ZM466.523 885.999C449.709 882.385 420.435 872.534 420.435 870.491C420.435 869.936 423.066 870.6 426.282 871.967C429.498 873.334 435.844 875.524 440.384 876.833C444.923 878.142 451.424 880.023 454.829 881.011C458.234 882 465.508 883.637 470.994 884.649C476.479 885.662 480.968 886.975 480.968 887.567C480.968 888.966 479.674 888.825 466.523 885.999ZM106.422 870.303C104.77 866.268 105.131 839.683 106.815 841.368C107.674 842.227 108.084 848.749 107.847 857.808C107.627 866.198 106.999 871.711 106.422 870.303ZM413.557 868.995C389.543 859.064 365.509 844.651 348.209 829.807C345.182 827.21 339.355 822.206 335.26 818.688C323.15 808.283 292.464 776.968 288.547 771.018C281.765 760.715 278.219 756.573 276.182 756.573C275.064 756.573 274.531 756.956 275 757.425C275.468 757.893 274.923 759.205 273.788 760.34C271.574 762.554 270.131 761.912 269.629 758.489C269.079 754.746 267.691 752.024 266.79 752.925C266.311 753.405 265.114 753.131 264.132 752.316C261.573 750.192 260.54 751.242 255.977 760.601C253.738 765.192 251.391 768.95 250.761 768.952C250.13 768.953 249.82 768.488 250.073 767.917C253.082 761.103 258.098 745.126 258.098 742.353C258.098 741.071 256.274 736.782 254.046 732.821C248.863 723.61 234.71 690.798 234.71 687.993C234.71 684.061 237.069 688.269 242.304 701.544C251.198 724.096 260.568 741.037 262.767 738.541C264.313 736.785 278.062 713.16 327.93 626.566C355.005 579.55 358.926 572.652 364.366 562.457C366.143 559.127 371.031 550.522 375.23 543.333C379.428 536.145 387.815 521.597 393.868 511.003C399.92 500.41 408.481 485.862 412.891 478.673C431.72 447.983 527.743 280.195 527.743 277.984C527.743 276.651 529.291 274.214 531.182 272.57C533.074 270.925 534.669 269.111 534.727 268.538C534.785 267.966 535.036 266.441 535.284 265.15C535.533 263.859 534.866 262.08 533.803 261.198C532.74 260.316 531.87 258.719 531.87 257.65C531.87 256.581 530.858 254.161 529.62 252.273C528.383 250.384 527.848 248.394 528.433 247.85C529.017 247.306 529.786 247.676 530.14 248.673C530.495 249.67 532.187 252.115 533.901 254.107C536.929 257.627 537.117 257.663 540.586 255.391C542.549 254.104 544.818 251.814 545.628 250.301C547.804 246.233 549.978 246.929 548.084 251.087C545.964 255.739 548.12 257.13 557.493 257.158C566.479 257.184 594.553 261.877 612.351 266.326C626.612 269.891 658.621 281.367 669.467 286.804C672.885 288.517 678.147 290.592 681.161 291.416C687.498 293.149 696.282 298.212 695.064 299.429C694.608 299.885 689.74 298.038 684.247 295.325C667.384 286.994 640.386 276.311 624.234 271.578C605.008 265.945 574.64 260.858 558.916 260.637C542.788 260.411 542.614 260.442 541.341 263.791C539.776 267.906 540.973 272.312 543.657 272.312C544.741 272.312 545.628 273.199 545.628 274.283C545.628 275.367 546.866 276.647 548.379 277.127C549.893 277.608 551.131 279.209 551.131 280.687C551.131 282.164 552.564 285.682 554.315 288.505C556.067 291.327 561.109 300.446 565.521 308.769C569.933 317.093 576.446 328.236 579.993 333.533C587.518 344.768 600.589 367.491 608.312 382.761C611.29 388.649 616.126 396.657 619.058 400.556C621.99 404.455 626.093 411.443 628.175 416.084C630.258 420.726 635.133 429.637 639.009 435.886C642.885 442.136 646.057 447.623 646.057 448.079C646.057 449.338 664.235 481.995 679.553 508.252C687.057 521.115 695.675 535.973 698.705 541.27C729.623 595.312 813.475 738.64 815.461 740.841C816.871 742.403 818.024 744.451 818.024 745.393C818.024 746.335 818.643 746.723 819.4 746.255C820.157 745.788 820.776 746.266 820.776 747.322C820.776 748.376 823.252 752.773 826.279 757.094C829.305 761.415 831.782 765.541 831.782 766.264C831.782 768.759 829.617 767.568 827.294 763.796C821.861 754.971 819.808 753.146 817.481 755.077C816.283 756.071 815.629 757.412 816.027 758.056C818.149 761.489 773.281 815.361 770.527 812.686C769.972 812.147 773.382 807.814 778.103 803.056C789.078 791.998 802.178 775.745 805.732 768.78C808.49 763.373 808.324 760.75 805.217 760.644C803.429 760.584 794.637 743.252 794.637 739.788C794.637 738.611 793.413 736.799 791.919 735.761C788.257 733.218 775.097 709.987 776.256 708.111C776.763 707.292 776.562 707.001 775.811 707.466C775.059 707.93 773.066 705.859 771.383 702.863C769.699 699.867 768.609 697.416 768.961 697.416C769.313 697.416 767.805 695.494 765.61 693.144C763.415 690.794 761.619 688.101 761.619 687.159C761.619 686.218 759.736 682.848 757.434 679.671C755.133 676.494 749.961 667.27 745.94 659.173C736.009 639.169 722.951 616.012 715.797 605.715C714.137 603.327 711.11 598.278 709.069 594.495L705.359 587.616L693.628 586.639C687.176 586.101 679.714 586.071 677.046 586.572C674.009 587.142 672.196 586.944 672.196 586.044C672.196 584.516 677.701 584.144 693.864 584.58C699.349 584.727 703.818 584.33 703.794 583.695C703.719 581.737 700.181 577.727 698.527 577.727C697.664 577.727 696.959 576.547 696.959 575.104C696.959 572.772 695.469 572.369 683.545 571.47C676.168 570.914 659.497 570.391 646.499 570.309C632.324 570.22 623.721 569.682 625.001 568.965C626.175 568.308 641.924 568.043 659.999 568.377C678.073 568.711 693.137 568.709 693.473 568.373C693.809 568.037 692.576 564.787 690.734 561.151C686.451 552.7 657.297 503.076 652.47 496.023C650.456 493.079 648.808 490.165 648.808 489.546C648.808 488.926 642.546 477.715 634.893 464.63C613.923 428.777 606.942 416.777 593.044 392.69C556.149 328.747 538.749 299.317 538.749 300.86C538.749 301.805 537.768 303.662 536.569 304.986C532.817 309.13 523.911 323.901 516.282 338.633C512.25 346.421 506.062 357.007 502.532 362.157C499.003 367.306 495.721 373.188 495.239 375.226C494.758 377.265 493.052 380.369 491.449 382.125C489.846 383.881 486.367 389.239 483.719 394.034C481.071 398.828 473.762 411.011 467.477 421.108C457.547 437.059 447.425 454.366 434.612 477.298C432.71 480.703 430.663 484.108 430.064 484.865C429.132 486.042 422.435 497.821 406.992 525.449C405.089 528.854 401.501 534.735 399.02 538.518C396.538 542.302 394.305 546.306 394.058 547.418C393.81 548.529 391.287 553.338 388.449 558.104C385.612 562.87 383.29 567.156 383.29 567.628C383.29 568.1 391.659 568.168 401.888 567.778C412.118 567.387 420.767 567.522 421.11 568.077C421.629 568.917 412.265 569.857 387.417 571.46C382.573 571.773 379.163 573.566 379.163 575.799C379.163 576.847 377.925 578.477 376.411 579.422C371.933 582.219 373.171 584.038 379.163 583.466C382.58 583.14 384.666 583.518 384.666 584.461C384.666 585.744 379.337 586.586 372.665 586.358C370.044 586.268 363.459 598.344 365.188 600.072C366.183 601.068 365.651 602.815 363.448 605.782C361.702 608.133 359.143 612.688 357.76 615.904C356.377 619.12 354.746 621.751 354.135 621.751C352.558 621.751 352.734 620.799 355.189 616.052C356.379 613.749 357.151 611.662 356.903 611.414C356.17 610.681 335.845 646.702 335.629 649.118C335.521 650.334 335.366 652.002 335.286 652.823C335.205 653.645 333.02 657.05 330.43 660.39C327.84 663.73 322.831 672.034 319.298 678.844C315.766 685.654 312.313 691.814 311.626 692.533C310.938 693.252 310.376 694.71 310.376 695.774C310.376 696.837 308.828 699.547 306.937 701.795C305.045 704.043 303.477 706.609 303.452 707.497C303.389 709.711 298.583 715.301 296.742 715.301C295.272 715.301 294.707 717.09 295.129 720.41C295.364 722.261 290.875 730.986 283.285 743.431C280.16 748.554 278.891 751.811 279.89 752.144C280.768 752.436 281.485 753.328 281.485 754.125C281.485 756.877 294.321 775.049 300.666 781.28C304.165 784.716 311.152 792.203 316.193 797.917C321.234 803.631 326.962 809.164 328.923 810.214C330.883 811.263 335.791 815.255 339.829 819.085C358.691 836.977 375.061 848.209 399.111 859.762C408.948 864.487 417.254 868.585 417.569 868.868C419.045 870.197 416.645 870.273 413.557 868.995ZM289.116 730.333C291.061 727.251 292.462 724.188 292.228 723.527C291.995 722.866 290.101 725.388 288.021 729.131C283.454 737.346 284.183 738.147 289.116 730.333ZM307.359 696.692C306.935 696.268 306.166 697.032 305.649 698.389C304.903 700.35 305.061 700.508 306.42 699.159C307.36 698.226 307.782 697.116 307.359 696.692ZM193.445 862.103C193.441 860.746 195.818 856.413 198.727 852.473C201.636 848.532 206.32 840.666 209.136 834.991C217.27 818.601 230.24 797.846 232.347 797.846C233.558 797.846 232.909 798.996 224.392 811.952C218.331 821.171 215.522 826.229 209.974 837.909C207.235 843.676 203.941 849.447 202.655 850.733C201.369 852.019 200.295 853.801 200.267 854.693C200.241 855.585 198.695 858.172 196.835 860.442C194.196 863.661 193.45 864.026 193.445 862.103ZM877.322 853.219C872.294 842.593 870.976 840.296 866.077 833.62C862.738 829.069 861.333 826.554 852.546 809.388C850.566 805.521 848.15 801.397 847.176 800.224C845.969 798.77 845.87 797.803 846.865 797.189C847.72 796.66 849.997 799.879 852.372 804.977C857.514 816.017 862.721 824.993 870.787 836.724C874.304 841.838 877.181 846.609 877.181 847.325C877.181 848.04 878.729 850.906 880.621 853.694C884.093 858.811 885.043 862.505 882.888 862.505C882.243 862.505 879.738 858.327 877.322 853.219ZM529.119 823.755C529.119 804.713 529.403 789.417 529.75 789.764C530.912 790.925 531.408 858.378 530.255 858.378C529.63 858.378 529.119 842.798 529.119 823.755ZM545.188 853.219C543.832 844.385 544.065 791.245 545.464 790.38C546.27 789.882 546.819 802.699 546.902 823.977C546.976 842.897 546.799 858.378 546.508 858.378C546.217 858.378 545.623 856.057 545.188 853.219ZM729.423 827.542C733.259 824.958 744.07 815.398 753.446 806.298C762.822 797.198 770.748 790.007 771.06 790.319C773.081 792.341 728.872 832.239 724.61 832.239C723.42 832.239 725.586 830.125 729.423 827.542ZM967.571 819.28C967.125 812.957 967.29 806.012 967.939 803.846C969.104 799.96 969.123 799.953 969.42 803.349C970.127 811.433 969.991 829.783 969.221 830.259C968.76 830.544 968.017 825.603 967.571 819.28ZM105.116 776.415C104.793 749.234 104.723 726.737 104.96 726.422C105.197 726.107 105.711 726.169 106.103 726.561C107.475 727.932 108.347 821.112 107.011 823.499C106.158 825.023 105.499 808.653 105.116 776.415ZM235.316 794.81C236.296 790.205 241.421 781.337 243.101 781.337C245.012 781.337 244.535 783.073 241.589 786.84C240.109 788.731 238.885 790.935 238.868 791.736C238.852 792.537 237.867 794.394 236.68 795.863C234.612 798.423 234.556 798.379 235.316 794.81ZM841.441 787.184C837.142 780.338 835.574 774.067 839.462 779.273C842.586 783.455 848.291 792.384 848.291 793.092C848.291 795.595 844.87 792.645 841.441 787.184ZM528.724 779.653C528.293 774.904 528.325 755.851 528.794 737.313C530.287 678.313 529.683 593.134 527.755 590.811C526.379 589.152 526.49 588.6 528.342 587.889C529.752 587.348 531.375 588.001 532.581 589.592C534.822 592.552 535.138 594.236 533.454 594.236C532.812 594.236 532.209 618.225 532.114 647.546C531.94 701.467 530.578 787.209 529.884 787.907C529.676 788.116 529.154 784.401 528.724 779.653ZM544.782 734.905C545.309 705.585 545.638 670.452 545.513 656.832C545.387 643.212 545.207 623.278 545.112 612.534C544.992 598.942 544.417 592.475 543.22 591.279C542.274 590.332 541.502 588.289 541.504 586.738C541.506 584.159 542.447 583.889 552.51 583.576C559.145 583.37 563.512 583.779 563.512 584.608C563.512 585.363 561.036 586.074 558.009 586.188C549.534 586.506 549.132 586.579 548.114 587.999C547.59 588.73 547.798 590.096 548.576 591.034C549.355 591.972 549.55 593.455 549.01 594.328C548.267 595.531 548.011 659.592 548.678 677.468C548.735 678.982 548.25 690.744 547.601 703.607C546.952 716.471 546.597 740.77 546.813 757.605C547.113 781.102 546.811 788.215 545.514 788.215C544.191 788.215 544.032 776.657 544.782 734.905ZM775.376 783.258C775.376 782.802 778.218 779.268 781.692 775.405C785.165 771.542 789.035 766.197 790.292 763.527C791.549 760.858 793.66 758.465 794.983 758.211C798.05 757.62 798.05 759.506 794.98 763.096C793.656 764.645 789.206 770.002 785.09 775.001C778.385 783.146 775.376 785.703 775.376 783.258ZM244.583 776.292C244.828 775.03 245.753 773.757 246.64 773.462C247.665 773.121 247.982 773.955 247.511 775.755C246.632 779.118 243.94 779.611 244.583 776.292ZM833.433 774.183C832.525 773.275 831.782 772.037 831.782 771.431C831.782 769.404 833.854 770.303 835.59 773.082C837.471 776.095 836.063 776.813 833.433 774.183ZM967.615 773.518C967.066 772.556 967.229 388.706 967.781 382.028C967.891 380.704 968.527 379.62 969.196 379.62C969.882 379.62 970.163 392.977 969.84 410.231C969.525 427.066 969.395 488.51 969.551 546.773C969.869 665.039 969.483 773.413 968.742 774.154C968.474 774.422 967.967 774.133 967.615 773.518ZM821.068 730.176C818.736 727.844 818.891 727.2 823.39 720.529C829.641 711.26 840.924 680.881 844.877 662.674C847.284 651.591 850.848 645.642 849.115 655.601C848.097 661.449 840.89 687.358 838.44 693.977C837.599 696.247 835.383 702.438 833.514 707.735C831.646 713.031 829.457 717.776 828.65 718.28C827.843 718.783 826.825 721.828 826.387 725.046C825.544 731.245 823.809 732.918 821.068 730.176ZM107.19 616.053C107.335 560.546 107.277 473.902 107.06 423.511C106.843 373.12 107.146 329.165 107.731 325.833L108.795 319.776L109.558 328.718C109.978 333.636 109.955 358.09 109.506 383.06C109.059 408.029 108.842 440.222 109.026 454.598C109.209 468.975 109.255 523.454 109.128 575.663C109.001 627.873 108.882 680.594 108.863 692.821C108.843 705.049 108.401 715.486 107.877 716.014C107.353 716.543 107.045 671.56 107.19 616.053ZM227.456 666.462C220.459 642.578 216.695 618.241 215.838 591.328C215.051 566.617 217.139 533.694 219.75 529.63C220.705 528.145 220.842 529.156 220.211 533.016C214.228 569.594 217.323 623.055 227.473 658.438C228.595 662.348 229.231 666.372 228.888 667.38C228.475 668.59 227.988 668.277 227.456 666.462ZM337.891 648.371C337.891 645.832 345.589 632.757 347.084 632.757C348.186 632.757 347.198 635.774 344.389 640.988C340.496 648.214 337.891 651.174 337.891 648.371ZM853.059 630.005C853.45 625.844 853.775 621.046 853.782 619.343C853.787 617.641 854.418 616.248 855.181 616.248C856.058 616.248 856.237 619.16 855.667 624.158C854.449 634.835 852.113 640.072 853.059 630.005ZM348.96 627.136C349.804 625.558 350.769 624.541 351.104 624.875C352.067 625.838 350.115 630.005 348.701 630.005C347.998 630.005 348.115 628.715 348.96 627.136ZM855.784 589.942C856.615 575.775 855.3 553.278 852.959 541.614C852.541 539.533 852.796 537.831 853.526 537.831C857.383 537.831 860.247 600.824 856.548 604.32C855.198 605.597 855.04 602.62 855.784 589.942ZM517.857 588.654C517.619 587.939 509.535 587.2 499.893 587.012C490.251 586.823 482.358 586.205 482.353 585.638C482.348 585.07 484.665 584.564 487.503 584.513C492.263 584.427 518.85 584.466 521.208 584.565C521.776 584.586 522.24 585.469 522.24 586.523C522.24 588.756 518.498 590.575 517.857 588.654ZM442.239 588.066C441.913 587.741 435.326 587.35 427.602 587.198C419.877 587.046 413.557 586.477 413.557 585.935C413.557 585.392 421.14 585.001 430.409 585.066C439.678 585.13 453.62 585.024 461.39 584.83C469.16 584.635 476.191 584.892 477.014 585.401C479.274 586.798 475.303 588.834 472.202 587.868C468.846 586.822 445.819 586.812 444.131 587.857C443.416 588.299 442.564 588.392 442.239 588.066ZM627.967 588.07C627.644 587.746 620.416 587.36 611.906 587.21C603.396 587.061 596.153 586.485 595.81 585.929C595.467 585.374 603.691 584.986 614.086 585.067C624.482 585.148 639.957 585.051 648.476 584.848C657.182 584.643 665.014 585.094 666.361 585.878C668.562 587.161 668.534 587.291 666.005 587.479C664.492 587.592 662.634 587.553 661.878 587.392C658.663 586.711 631.078 587.1 629.874 587.844C629.149 588.292 628.291 588.394 627.967 588.07ZM388.793 584.606C388.793 583.849 389.722 583.23 390.857 583.23C391.992 583.23 392.92 583.849 392.92 584.606C392.92 585.362 391.992 585.981 390.857 585.981C389.722 585.981 388.793 585.362 388.793 584.606ZM395.672 584.823C395.672 584.087 399.232 583.242 403.582 582.945C411.711 582.391 413.264 582.605 411.791 584.078C410.305 585.565 395.672 586.241 395.672 584.823ZM567.64 584.606C567.64 583.849 568.878 583.23 570.391 583.23C571.904 583.23 573.142 583.849 573.142 584.606C573.142 585.362 571.904 585.981 570.391 585.981C568.878 585.981 567.64 585.362 567.64 584.606ZM575.894 584.797C575.894 584.069 579.763 583.24 584.492 582.953C593.396 582.414 594.86 582.607 593.345 584.122C591.851 585.616 575.894 586.232 575.894 584.797ZM494.042 571.246C487.992 570.957 482.606 570.285 482.074 569.752C481.541 569.22 508.16 568.879 541.226 568.995C619.134 569.268 616.929 569.21 614.415 570.907C613.178 571.742 607.387 571.993 599.969 571.535C582.069 570.428 580.152 570.414 540.813 571.125C521.139 571.481 500.093 571.535 494.042 571.246ZM428.69 568.935C428.69 567.833 438.514 567.297 439.172 568.363C439.549 568.973 437.345 569.472 434.274 569.472C431.203 569.472 428.69 569.231 428.69 568.935ZM445.199 568.097C445.199 567.249 451.669 566.758 462.051 566.818C472.748 566.879 477.899 567.346 476.153 568.097C472.212 569.79 445.199 569.79 445.199 568.097ZM851.294 516.506C842.852 476.188 840 467.662 824.149 435.338C811.906 410.371 786.634 374.825 771.977 361.956C769.149 359.472 763.779 353.918 760.044 349.614C753.376 341.928 746.821 336.412 722.714 318.203C710.108 308.682 708.125 305.99 717.118 310.606C731.258 317.865 771.298 355.828 792.083 381.684C815.22 410.465 833.23 443.449 843.539 475.922C848.258 490.784 855.417 523.544 854.902 527.914C854.644 530.101 853.154 525.39 851.294 516.506ZM219.577 524.306C219.577 518.517 226.459 491.835 232.767 473.171C247.306 430.145 266.624 398.492 300.491 362.202C311.323 350.596 320.637 341.099 321.189 341.099C321.742 341.099 326.99 336.817 332.851 331.583C351.734 314.722 375.208 300.232 411.493 283.043C431.461 273.584 459.276 264.94 482.151 261.087C486.206 260.404 491.178 258.99 493.199 257.945C495.716 256.643 497.619 256.462 499.239 257.368C502.561 259.227 502.181 261.298 498.509 261.35C496.806 261.376 494.301 262.237 492.942 263.268C491.582 264.299 489.285 264.833 487.836 264.454C484.57 263.6 460.133 268.532 442.544 273.595C435.303 275.68 422.067 280.887 413.132 285.167C404.198 289.447 396.709 292.948 396.49 292.948C396.272 292.948 388.105 297.352 378.342 302.733C358.083 313.901 345.719 322.326 339.064 329.5C336.527 332.235 331.021 336.828 326.827 339.706C313.48 348.869 280.452 386.33 265.559 409.199C253.309 428.007 247.365 440.367 236.446 469.731C235.321 472.758 233.538 477.401 232.485 480.049C230.31 485.516 224.32 509.41 222.906 518.256C222.089 523.37 219.577 527.934 219.577 524.306ZM970.234 366.818C969.796 365.073 969.4 346.655 969.355 325.889C969.236 270.998 969.243 270.705 970.58 271.531C971.665 272.202 972.538 369.99 971.46 369.99C971.223 369.99 970.672 368.563 970.234 366.818ZM107.486 293C106.89 292.036 106.159 66.856 106.694 49.0987C106.736 47.7745 107.585 46.6912 108.586 46.6912C111.403 46.6912 111.387 45.0008 109.44 139.554C108.646 178.143 108.286 228.753 108.641 252.02C108.995 275.288 109.065 294.325 108.795 294.325C108.525 294.325 107.936 293.728 107.486 293ZM968.871 248.581C967.7 238.826 967.917 228.199 969.356 224.85C970.106 223.103 970.573 228.254 970.635 238.951C970.688 248.22 970.508 255.804 970.235 255.804C969.962 255.804 969.349 252.554 968.871 248.581ZM513.636 225.14C507.892 215.153 503.539 206.668 503.962 206.286C504.386 205.902 504.963 206.209 505.245 206.965C505.771 208.375 509.446 214.57 520.12 232.044C523.462 237.514 525.72 242.284 525.138 242.644C524.557 243.003 519.381 235.126 513.636 225.14ZM551.537 241.081C552.554 236.533 570.445 206.277 572.117 206.277C572.916 206.277 572.627 207.36 571.475 208.685C570.324 210.009 566.505 216.508 562.989 223.128C554.633 238.859 550.632 245.131 551.537 241.081ZM499.239 200.784C497.892 198.315 494.883 193.433 492.554 189.936C490.224 186.439 483.983 174.91 478.683 164.317C467.565 142.095 458.902 126.943 452.469 118.468C449.984 115.194 447.95 111.656 447.95 110.605C447.95 109.554 446.042 106.743 443.71 104.357C441.148 101.736 439.968 99.5221 440.729 98.7616C443.106 96.3845 445.967 99.041 449.27 106.691C451.089 110.905 454.311 116.535 456.429 119.201C458.548 121.867 462.09 127.875 464.3 132.553C466.51 137.231 469.307 141.879 470.516 142.882C471.725 143.885 472.713 145.75 472.713 147.026C472.713 148.302 473.639 150.548 474.77 152.016C475.901 153.485 479.632 160.532 483.062 167.675C486.491 174.819 490.709 182.558 492.434 184.872C496.703 190.599 503.325 203.639 502.422 204.542C502.019 204.945 500.587 203.254 499.239 200.784ZM571.767 204.07C571.767 203.31 573.683 199.667 576.024 195.975C578.366 192.283 580.835 187.806 581.512 186.027C582.188 184.248 586.308 177.485 590.667 170.998C595.027 164.51 599.211 158.187 599.966 156.945C600.721 155.703 602.733 152.716 604.437 150.307C606.142 147.899 607.536 145.508 607.536 144.996C607.536 144.483 610.631 138.938 614.415 132.675C618.198 126.412 621.293 120.534 621.293 119.614C621.293 118.694 623.091 115.278 625.287 112.024C629.355 105.996 631.715 100.568 631.16 98.5176C630.991 97.8908 631.893 97.5813 633.165 97.8297C635.45 98.2758 637.209 103.097 635.087 103.097C633.816 103.097 622.669 121.156 622.669 123.215C622.669 123.975 619.883 128.75 616.478 133.827C613.073 138.904 610.287 143.95 610.287 145.041C610.287 146.131 609.006 148.438 607.44 150.167C603.439 154.585 587.115 179.717 583.952 186.329C578.829 197.037 571.767 207.319 571.767 204.07ZM968.848 180.138C968.323 166.897 967.708 141.205 967.482 123.045C967.211 101.281 966.524 89.0059 965.467 87.0312C963.912 84.1267 964.528 79.7089 966.489 79.7089C967.02 79.7089 968.493 80.4828 969.763 81.4286C971.758 82.9144 971.934 84.7386 971.058 94.8421C970.5 101.274 970.372 126.656 970.773 151.247C971.572 200.245 970.365 218.368 968.848 180.138ZM130.154 40.2085L126.715 37.7489L133.593 36.6646C137.377 36.0682 142.02 35.6635 143.911 35.7653C145.803 35.8671 200.592 36.0965 265.664 36.2752C330.737 36.4539 430.719 37.0339 487.847 37.5643C544.974 38.0947 609.359 38.6147 630.924 38.7199C655.042 38.8376 665.367 39.2373 657.75 39.7584C650.941 40.2243 606.367 40.3951 558.697 40.138C391.745 39.2372 178.811 39.1321 159.045 39.9406C148.073 40.3893 137.858 41.1866 136.345 41.7123C134.607 42.316 132.326 41.7618 130.154 40.2085ZM921.939 40.1565C897.579 39.9103 882.943 39.2413 882.043 38.3328C881.056 37.3372 892.622 36.9048 919.829 36.9202C979.73 36.954 978.721 36.9015 976.864 39.9073C976.428 40.6116 972.549 41.0434 968.243 40.8667C963.937 40.69 943.1 40.3704 921.939 40.1565ZM673.572 38.7804C673.573 37.531 854.873 37.6817 856.124 38.9321C856.608 39.4162 815.731 39.8122 765.288 39.8122C714.844 39.8122 673.572 39.3479 673.572 38.7804Z" fill="#C31D03"/>
<path d="M965.983 1032.07C966.665 993.353 968.139 906.986 968.699 872.962C969.034 852.608 969.636 835.627 970.037 835.227C970.437 834.826 970.679 876.552 970.574 927.951C970.47 979.35 970.478 1023.57 970.595 1026.22C971.232 1040.87 970.197 1048.23 967.503 1048.23C966.103 1048.23 965.762 1044.62 965.983 1032.07ZM930.912 1041.44C929.739 1040.69 864.974 1040.12 772.702 1040.04C686.779 1039.97 614.312 1039.73 611.663 1039.52C609.015 1039.31 561.965 1038.94 507.107 1038.7C444.688 1038.42 410.197 1037.81 414.932 1037.07C419.094 1036.42 471.097 1036.29 530.494 1036.78C705.76 1038.22 933.423 1037.63 938.041 1035.71C940.966 1034.5 942.824 1034.48 945.342 1035.63C950.358 1037.91 949.451 1039.62 942.873 1040.29C939.657 1040.62 936.097 1041.29 934.962 1041.79C933.827 1042.29 932.005 1042.13 930.912 1041.44ZM108.83 1040.39C101.357 1039.52 98.0939 1038.47 99.3448 1037.32C101.046 1035.77 194.814 1037.27 194.814 1038.85C194.814 1039.6 179.381 1039.94 157.325 1039.7C136.706 1039.47 118.288 1039.64 116.397 1040.08C114.505 1040.51 111.1 1040.65 108.83 1040.39ZM221.242 1038.35C219.948 1037.84 260.677 1037.48 311.752 1037.55C362.826 1037.63 402.447 1037.9 399.799 1038.15C390.26 1039.08 223.539 1039.27 221.242 1038.35ZM106.639 1014.97C106.569 1014.73 106.245 987.13 105.919 953.648C105.52 912.664 105.786 892.772 106.734 892.772C107.641 892.772 108.245 903.174 108.43 922.006C108.898 969.412 109.9 1003.12 111.077 1011.04C111.432 1013.43 110.867 1014.58 109.174 1014.93C107.85 1015.19 106.709 1015.22 106.639 1014.97ZM385.698 1013.73C382.641 1011.95 382.535 1004.78 385.456 997.475C387.466 992.452 387.416 990.854 384.768 975.262C381.406 955.465 381.26 950.657 383.833 944.498C386.508 938.096 390.92 935.42 398.798 935.42C409.278 935.42 417.357 941.176 421.745 951.768C423.052 954.924 423.993 955.724 425.209 954.714C427.702 952.646 428.995 954.807 426.768 957.32C425.57 958.672 424.65 963.659 424.337 970.501C423.935 979.264 422.969 983.33 419.593 990.449C411.143 1008.27 395.166 1019.24 385.698 1013.73ZM402.75 1007.51C412.965 1000.43 421.723 982.899 421.778 969.421C421.809 962.179 421.588 961.581 419.335 962.787C415.252 964.972 397.915 983.171 395.328 987.988C393.768 990.892 392.92 995.505 392.92 1001.09C392.92 1005.92 392.315 1009.71 391.545 1009.71C390.152 1009.71 389.632 1007.8 390.099 1004.41C390.24 1003.39 389.937 1001.53 389.426 1000.28C388.612 998.294 388.359 998.354 387.367 1000.77C385.632 1004.98 385.843 1010.77 387.761 1011.6C390.846 1012.94 397.561 1011.1 402.75 1007.51ZM391.33 963.966C391.027 953.596 391.351 947.964 392.233 948.256C392.997 948.509 393.914 956.131 394.296 965.404L394.984 982.096L407.733 969.545C421.675 955.819 421.829 955.363 415.389 946.768C411.136 941.092 405.501 938.171 398.798 938.171C384.723 938.171 381.965 950.213 389.029 980.819C390.535 987.344 390.846 987.818 391.29 984.258C391.572 981.988 391.59 972.857 391.33 963.966ZM658.744 1011.7C655.203 1009.21 654.691 1002.01 657.578 995.264C659.07 991.777 658.964 989.644 656.896 981.507C650.607 956.76 650.837 945.647 657.784 938.701C662.523 933.962 673.666 934.013 678.449 938.797C683.159 943.507 682.769 948.875 677.104 957.293L672.382 964.31H675.874C677.795 964.31 681.622 962.557 684.379 960.414C691.467 954.906 692.833 954.243 692.823 956.319C692.817 957.309 690.577 959.642 687.845 961.504L682.876 964.888L688.325 967.202C699.54 971.965 703.226 981.527 698.279 993.025C693.156 1004.94 680.33 1013.75 668.031 1013.81C664.573 1013.82 660.442 1012.88 658.744 1011.7ZM678.609 1008.43C686.686 1004.76 694.85 996.147 696.532 989.52C699.172 979.12 693.044 969.839 683.214 969.35C679.156 969.148 677.943 970.1 671.226 978.756L663.754 988.386L664.653 999.314C665.466 1009.19 665.343 1010.07 663.371 1008.43C662.123 1007.4 661.181 1004.49 661.169 1001.63C661.153 997.902 660.811 997.162 659.814 998.704C657.959 1001.57 658.11 1007.46 660.089 1009.43C662.551 1011.9 672.112 1011.38 678.609 1008.43ZM660.985 964.769C660.627 950.827 660.938 945.822 662.182 945.407C663.438 944.988 663.959 949.567 664.246 963.549L664.629 982.25L670.557 974.656L676.484 967.062H671.67C665.469 967.062 664.289 965.047 668.769 962.112C672.686 959.545 679.074 949.534 679.074 945.961C679.074 940.153 669.305 936.199 661.939 939.026C658.433 940.371 655.687 947.065 655.686 954.268C655.685 960.954 659.654 983.571 660.829 983.571C661.18 983.571 661.25 975.11 660.985 964.769ZM630.419 1010.05C630.039 1008.73 629.304 1000.37 628.785 991.481L627.842 975.316L619.409 975.337C605.579 975.368 605.214 975.619 603.405 986.346C602.535 991.507 602.024 998.349 602.272 1001.55C602.562 1005.32 602.114 1007.58 601.001 1007.97C598.848 1008.72 598.675 992.688 600.739 983.735C602.391 976.567 601.796 975.62 597.188 978.086C594.59 979.476 593.33 979.547 592.151 978.368C590.557 976.774 593.53 974.993 599.836 973.764C601.856 973.371 603.197 970.452 605.71 960.979C609.98 944.889 614.032 937.485 618.569 937.485C623.291 937.485 626.533 944.607 628.552 959.417L630.157 971.191H634.668C637.148 971.191 639.178 971.81 639.178 972.567C639.178 973.323 637.254 973.942 634.902 973.942H630.627L631.519 988.044C632.01 995.799 632.751 1004.47 633.165 1007.3C633.927 1012.53 631.753 1014.71 630.419 1010.05ZM626.229 970.839C627.481 969.587 624.289 949.76 621.91 944.018C619.49 938.177 617.819 938.377 614.486 944.909C612.034 949.716 606.16 968.589 606.16 971.66C606.16 973.052 624.778 972.29 626.229 970.839ZM564.429 1010.17C562.944 1008.68 563.37 993.662 565.52 971.726C566.624 960.459 567.854 947.276 568.254 942.43C569.02 933.143 569.442 931.919 571.448 933.159C572.163 933.601 572.219 937.589 571.58 942.583C569.738 956.972 566.264 996.068 566.264 1002.4C566.264 1008.18 566.382 1008.33 570.735 1008.33C573.194 1008.33 580.008 1006.85 585.877 1005.04C591.747 1003.23 596.864 1002.26 597.25 1002.88C598.193 1004.41 597.345 1004.82 586.411 1008.19C577.202 1011.02 566.265 1012 564.429 1010.17ZM489.566 1001.25C486.857 998.539 487.545 993.771 491.286 989.324C493.62 986.55 494.725 983.575 494.725 980.063C494.725 975.138 494.604 974.999 492.209 977.167C489.045 980.031 486.471 980.091 486.471 977.302C486.471 975.363 486.181 975.363 483.413 977.302C479.455 980.074 474.559 980.038 472.985 977.226C471.888 975.266 471.086 975.444 466.082 978.755C462.967 980.816 460.037 983.707 459.57 985.178C459.069 986.758 457.783 987.648 456.431 987.35C454.137 986.846 453.974 986.047 455.376 982.195C455.789 981.06 455.301 979.045 454.29 977.718C452.548 975.429 452.118 975.453 445.952 978.18C437.476 981.929 432.817 980.939 432.817 975.388C432.817 969.034 438.775 964.437 440.656 969.34C441.207 970.774 440.449 972.493 438.608 973.984C437 975.285 436.015 976.68 436.418 977.083C438.171 978.836 451.759 973.087 454.958 969.24C456.3 967.627 458.036 966.942 459.43 967.477C462.463 968.641 462.358 971.419 459.3 970.905C456.291 970.4 455.271 975.58 457.944 977.798C459.391 979 461.399 978.286 466.794 974.653C473.94 969.841 475.465 969.756 475.465 974.169C475.465 977.256 477.968 977.401 482.038 974.55C483.719 973.372 485.095 972.891 485.095 973.48C485.095 974.07 486.083 973.142 487.291 971.417C488.937 969.068 490.574 968.388 493.826 968.704C497.979 969.107 498.159 969.379 498.041 975.043L497.917 980.96L503.544 975.621C510.141 969.362 515.565 968.361 518.692 972.827C520.497 975.403 521.239 975.587 524.259 974.211C527.939 972.534 528.863 973.646 526.093 976.417C523.462 979.047 518.634 978.335 516.301 974.972L514.153 971.877L512.392 976.348C510.468 981.233 508.853 982.008 507.569 978.663C506.044 974.688 497.897 984.228 496.849 991.216C495.723 998.724 492.072 1003.75 489.566 1001.25ZM493.307 993.201C493.307 991.367 493.159 991.367 491.974 993.201C491.24 994.336 490.64 996.193 490.64 997.328C490.64 999.162 490.788 999.162 491.974 997.328C492.707 996.193 493.307 994.336 493.307 993.201ZM492.786 971.543C491.832 970.589 489.222 972.527 489.222 974.19C489.222 975.102 490.012 974.998 491.319 973.913C492.472 972.956 493.133 971.889 492.786 971.543ZM472.713 966.374C472.713 965.113 473.379 964.303 474.192 964.574C475.006 964.845 475.671 965.655 475.671 966.374C475.671 967.093 475.006 967.903 474.192 968.174C473.379 968.445 472.713 967.635 472.713 966.374ZM517.425 909.774C493.712 907.071 486.099 905.847 470.65 902.257C451.631 897.837 442.548 895.013 418.372 885.998C394.08 876.941 378.021 868.246 344.807 846.164C327.653 834.76 321.699 829.729 301.815 809.839C286.324 794.344 278.734 785.783 278.734 783.805V780.857L281.829 783.643C283.532 785.176 286.008 786.812 287.332 787.279C288.656 787.747 289.74 789.302 289.74 790.735C289.74 792.24 297.736 801.423 308.656 812.46C327.573 831.58 337.572 839.126 376.412 863.598C388.051 870.932 413.431 883.096 417.146 883.122C418.742 883.132 424.836 885.354 430.688 888.058C444.789 894.573 483.707 903.778 509.171 906.622C541.489 910.231 584.11 906.967 618.694 898.236C640.222 892.801 643.028 893.662 622.567 899.424C598.909 906.087 564.81 910.701 541.079 910.45C530.339 910.337 519.695 910.032 517.425 909.774ZM166.301 906.529C166.188 905.016 166.615 903.778 167.251 903.778C168.927 903.778 186.195 877.766 188.029 872.48C188.882 870.02 190.139 868.008 190.821 868.008C191.504 868.008 192.062 868.348 192.062 868.765C192.062 870.637 182.093 888.098 174.475 899.568C172.747 902.17 171.624 905.06 171.98 905.989C172.336 906.917 171.688 908.038 170.539 908.479C167.197 909.761 166.522 909.45 166.301 906.529ZM907.791 908.37C906.846 907.988 906.072 906.848 906.072 905.836C906.072 902.607 890.737 871.972 888.736 871.204C886.676 870.413 886.039 866.633 887.966 866.633C888.601 866.633 889.841 868.026 890.72 869.728C891.6 871.431 894.499 876.538 897.163 881.078C899.827 885.618 903.215 891.977 904.691 895.209C906.167 898.44 908.32 901.447 909.475 901.89C910.63 902.333 911.575 904.178 911.575 905.988C911.575 909.29 910.988 909.659 907.791 908.37ZM528.89 902.954C527.702 900.68 529.389 868.008 530.695 868.008C531.417 868.008 531.902 873.891 531.801 881.422C531.702 888.799 532.001 895.782 532.464 896.938C533.379 899.222 529.954 904.989 528.89 902.954ZM544.756 886.925C545.77 864.667 545.922 864.456 546.994 883.829C547.934 900.822 547.69 903.778 545.348 903.778C544.483 903.778 544.267 897.638 544.756 886.925ZM516.204 894.531C515.823 894.15 510.108 893.123 503.505 892.248C496.901 891.373 491.264 889.953 490.977 889.093C490.599 887.96 492.01 887.879 496.105 888.799C499.212 889.497 506.168 890.244 511.562 890.458C516.969 890.674 521.59 891.51 521.861 892.323C522.368 893.842 517.439 895.766 516.204 894.531ZM550.687 894.621C549.091 893.024 549.662 891.396 551.818 891.396C552.953 891.396 553.885 890.931 553.889 890.364C553.893 889.796 560.313 889.254 568.157 889.157C576.821 889.051 585.054 888.14 589.131 886.837C592.822 885.656 601.686 883.722 608.827 882.537C615.969 881.353 624.368 879.147 627.49 877.635C630.613 876.124 634.508 874.887 636.146 874.887C637.784 874.887 643.005 873.369 647.749 871.514C652.493 869.659 661.637 866.197 668.069 863.822C680.09 859.383 691.664 853.421 699.153 847.81C701.494 846.056 703.85 844.621 704.387 844.621C704.925 844.621 709.093 842.089 713.65 838.994C718.206 835.9 722.196 833.63 722.516 833.949C723.367 834.8 713.56 842.424 707.965 845.262C705.317 846.605 702.221 848.508 701.086 849.491C697.789 852.347 681.644 861.186 675.635 863.426C654.497 871.304 643.257 875.258 638.49 876.492C635.464 877.276 631.021 878.79 628.618 879.857C626.215 880.925 616.816 883.338 607.73 885.22C598.645 887.102 589.573 889.265 587.57 890.027C585.567 890.788 579.49 891.73 574.064 892.119C561.755 893.002 558.075 893.475 554.471 894.635C552.902 895.14 551.2 895.135 550.687 894.621ZM641.013 891.766C641.5 890.977 644.183 889.903 646.975 889.38C659.81 886.972 693.645 870.406 717.595 854.804C727.233 848.526 749.635 831.526 752.546 828.281C753.987 826.675 755.786 825.36 756.542 825.36C759.963 825.36 738.007 843.825 721.03 855.225C697.109 871.289 636.587 898.927 641.013 891.766ZM466.523 885.999C449.709 882.385 420.435 872.534 420.435 870.491C420.435 869.936 423.066 870.6 426.282 871.967C429.498 873.334 435.844 875.524 440.384 876.833C444.923 878.142 451.424 880.023 454.829 881.011C458.234 882 465.508 883.637 470.994 884.649C476.479 885.662 480.968 886.975 480.968 887.567C480.968 888.966 479.674 888.825 466.523 885.999ZM106.422 870.303C104.77 866.268 105.131 839.683 106.815 841.368C107.674 842.227 108.084 848.749 107.847 857.808C107.627 866.198 106.999 871.711 106.422 870.303ZM413.557 868.995C389.543 859.064 365.509 844.651 348.209 829.807C345.182 827.21 339.355 822.206 335.26 818.688C323.15 808.283 292.464 776.968 288.547 771.018C281.765 760.715 278.219 756.573 276.182 756.573C275.064 756.573 274.531 756.956 275 757.425C276.217 758.642 272.131 762.409 270.613 761.471C268.968 760.454 269.422 757.618 271.628 755.119C277.881 748.037 291.226 727.265 293.232 721.492C293.767 719.95 294.454 719.448 294.793 720.351C295.436 722.059 291.479 729.994 283.285 743.43C280.16 748.554 278.891 751.81 279.89 752.143C280.768 752.436 281.485 753.328 281.485 754.125C281.485 756.877 294.321 775.049 300.666 781.279C304.165 784.716 311.152 792.202 316.193 797.916C321.234 803.63 326.962 809.164 328.923 810.213C330.883 811.262 335.791 815.255 339.829 819.085C358.691 836.976 375.061 848.208 399.111 859.761C408.948 864.486 417.254 868.584 417.569 868.868C419.045 870.197 416.645 870.273 413.557 868.995ZM193.445 862.102C193.441 860.746 195.818 856.412 198.727 852.472C201.636 848.532 206.32 840.665 209.136 834.99C217.27 818.601 230.24 797.845 232.347 797.845C233.558 797.845 232.909 798.996 224.392 811.951C218.331 821.171 215.522 826.229 209.974 837.909C207.235 843.676 203.941 849.447 202.655 850.733C201.369 852.019 200.295 853.801 200.267 854.693C200.241 855.585 198.695 858.172 196.835 860.442C194.196 863.661 193.45 864.026 193.445 862.102ZM877.322 853.219C872.294 842.593 870.976 840.296 866.077 833.62C862.738 829.069 861.333 826.554 852.546 809.387C850.566 805.521 848.15 801.397 847.176 800.224C845.969 798.77 845.87 797.803 846.865 797.189C847.72 796.66 849.997 799.879 852.372 804.977C857.514 816.017 862.721 824.992 870.787 836.723C874.304 841.838 877.181 846.609 877.181 847.324C877.181 848.04 878.729 850.906 880.621 853.694C884.093 858.81 885.043 862.505 882.888 862.505C882.243 862.505 879.738 858.326 877.322 853.219ZM529.119 823.755C529.119 804.713 529.403 789.417 529.75 789.764C530.912 790.925 531.408 858.378 530.255 858.378C529.63 858.378 529.119 842.798 529.119 823.755ZM545.188 853.219C543.832 844.385 544.065 791.244 545.464 790.38C546.27 789.882 546.819 802.698 546.902 823.976C546.976 842.897 546.799 858.378 546.508 858.378C546.217 858.378 545.623 856.056 545.188 853.219ZM729.423 827.541C733.259 824.957 744.07 815.398 753.446 806.298C762.822 797.198 770.748 790.007 771.06 790.319C773.081 792.34 728.872 832.239 724.61 832.239C723.42 832.239 725.586 830.125 729.423 827.541ZM967.571 819.28C967.125 812.957 967.29 806.012 967.939 803.846C969.104 799.959 969.123 799.953 969.42 803.348C970.127 811.433 969.991 829.783 969.221 830.259C968.76 830.543 968.017 825.603 967.571 819.28ZM105.116 776.415C104.793 749.234 104.723 726.737 104.96 726.422C105.197 726.107 105.711 726.169 106.103 726.561C107.475 727.932 108.347 821.112 107.011 823.499C106.158 825.023 105.499 808.653 105.116 776.415ZM769.873 812.164C769.873 811.715 773.657 807.536 778.281 802.877C788.62 792.459 802.05 775.919 805.649 769.171C808.997 762.892 813.182 757.949 815.149 757.949C815.974 757.949 816.613 758.413 816.569 758.981C816.342 761.942 799.699 783.029 784.54 799.565C773.536 811.57 769.873 814.715 769.873 812.164ZM235.316 794.81C236.296 790.205 241.421 781.337 243.101 781.337C245.012 781.337 244.535 783.073 241.589 786.84C240.109 788.731 238.885 790.935 238.868 791.736C238.852 792.537 237.867 794.394 236.68 795.863C234.612 798.423 234.556 798.379 235.316 794.81ZM841.441 787.184C837.142 780.338 835.574 774.067 839.462 779.273C842.586 783.455 848.291 792.384 848.291 793.092C848.291 795.595 844.87 792.645 841.441 787.184ZM528.724 779.653C528.293 774.904 528.325 755.851 528.794 737.313C530.287 678.313 529.683 593.134 527.755 590.811C526.379 589.152 526.49 588.6 528.342 587.889C529.752 587.348 531.375 588.001 532.581 589.592C534.822 592.552 535.138 594.236 533.454 594.236C532.812 594.236 532.209 618.225 532.114 647.546C531.94 701.467 530.578 787.209 529.884 787.907C529.676 788.116 529.154 784.401 528.724 779.653ZM544.782 734.905C545.309 705.585 545.638 670.452 545.513 656.832C545.387 643.212 545.207 623.278 545.112 612.534C544.992 598.942 544.417 592.475 543.22 591.279C542.274 590.332 541.502 588.289 541.504 586.738C541.506 584.159 542.447 583.889 552.51 583.576C559.145 583.37 563.512 583.779 563.512 584.608C563.512 585.363 561.036 586.074 558.009 586.188C549.534 586.506 549.132 586.579 548.114 587.999C547.59 588.73 547.798 590.096 548.576 591.034C549.355 591.972 549.55 593.455 549.01 594.328C548.267 595.531 548.011 659.592 548.678 677.468C548.735 678.982 548.25 690.744 547.601 703.607C546.952 716.471 546.597 740.77 546.813 757.605C547.113 781.102 546.811 788.215 545.514 788.215C544.191 788.215 544.032 776.657 544.782 734.905ZM775.376 783.258C775.376 782.802 778.218 779.268 781.692 775.405C785.165 771.542 789.035 766.197 790.292 763.527C791.549 760.858 793.66 758.465 794.983 758.211C798.05 757.62 798.05 759.506 794.98 763.096C793.656 764.645 789.206 770.002 785.09 775.001C778.385 783.146 775.376 785.703 775.376 783.258ZM244.583 776.292C244.828 775.03 245.753 773.757 246.64 773.462C247.665 773.121 247.982 773.955 247.511 775.755C246.632 779.118 243.94 779.611 244.583 776.292ZM833.433 774.183C832.525 773.275 831.782 772.037 831.782 771.431C831.782 769.404 833.854 770.303 835.59 773.082C837.471 776.095 836.063 776.813 833.433 774.183ZM967.615 773.518C967.066 772.556 967.229 388.706 967.781 382.028C967.891 380.704 968.527 379.62 969.196 379.62C969.882 379.62 970.163 392.977 969.84 410.231C969.525 427.066 969.395 488.51 969.551 546.773C969.869 665.039 969.483 773.413 968.742 774.154C968.474 774.422 967.967 774.133 967.615 773.518ZM250.073 767.917C253.082 761.103 258.098 745.126 258.098 742.354C258.098 741.072 256.274 736.782 254.046 732.821C248.863 723.61 234.71 690.798 234.71 687.994C234.71 684.061 237.069 688.27 242.304 701.544C251.19 724.074 260.578 741.054 262.76 738.541C263.858 737.276 278.532 712.63 282.126 706.015C284.284 702.043 286.637 698.792 287.354 698.792C289.306 698.792 288.057 701.296 276.012 721.527C264.937 740.127 263.75 743.457 266.416 748.438C268.271 751.904 266.812 754.54 264.226 752.395C261.567 750.187 260.573 751.176 255.977 760.602C253.738 765.192 251.391 768.95 250.761 768.952C250.13 768.953 249.82 768.488 250.073 767.917ZM825.591 761.316C823.321 757.904 820.032 754.164 818.281 753.003C816.531 751.843 813.962 748.239 812.571 744.996C810.612 740.426 799.982 720.74 788.178 699.824C787.858 699.257 788.214 698.792 788.97 698.792C789.725 698.792 795.131 707.305 800.983 717.709C806.835 728.113 813.063 738.207 814.824 740.14C816.584 742.073 818.024 744.431 818.024 745.38C818.024 746.329 818.643 746.723 819.4 746.255C820.157 745.788 820.776 746.266 820.776 747.322C820.776 748.376 823.252 752.774 826.279 757.094C829.305 761.415 831.782 765.542 831.782 766.265C831.782 769.054 829.555 767.274 825.591 761.316ZM798.951 750.942C793.32 739.202 794.165 736.832 800.181 747.492C802.573 751.73 805.09 755.198 805.774 755.198C806.458 755.198 807.018 756.436 807.018 757.949C807.018 763.45 803.475 760.372 798.951 750.942ZM784.885 726.068C781.655 720.525 776.671 711.992 773.809 707.107C770.947 702.222 768.976 697.889 769.428 697.477C769.88 697.065 770.495 697.409 770.795 698.242C771.095 699.074 773.436 703.098 775.996 707.184C784.693 721.063 792.175 734.73 791.465 735.44C791.076 735.829 788.115 731.612 784.885 726.068ZM821.068 730.176C818.736 727.844 818.891 727.2 823.39 720.529C829.641 711.26 840.924 680.881 844.877 662.674C847.284 651.591 850.848 645.642 849.115 655.601C848.097 661.449 840.89 687.358 838.44 693.977C837.599 696.247 835.383 702.438 833.514 707.735C831.646 713.031 829.457 717.776 828.65 718.28C827.843 718.783 826.825 721.828 826.387 725.046C825.544 731.245 823.809 732.918 821.068 730.176ZM107.19 616.053C107.335 560.546 107.277 473.902 107.06 423.511C106.843 373.12 107.146 329.165 107.731 325.833L108.795 319.776L109.558 328.718C109.978 333.636 109.955 358.09 109.506 383.06C109.059 408.029 108.842 440.222 109.026 454.598C109.209 468.975 109.255 523.454 109.128 575.663C109.001 627.873 108.882 680.594 108.863 692.821C108.843 705.049 108.401 715.486 107.877 716.014C107.353 716.543 107.045 671.56 107.19 616.053ZM296.71 713.581C296.762 712.636 298.887 709.076 301.437 705.671C303.987 702.266 308.803 694.218 312.139 687.786C320.839 671.015 325.566 662.87 329.101 658.559C330.804 656.483 332.595 653.533 333.08 652.004C333.565 650.476 334.538 649.582 335.242 650.017C336.776 650.965 334.812 654.946 329.503 661.647C327.405 664.296 322.806 672.034 319.282 678.844C315.759 685.654 312.313 691.814 311.626 692.533C310.938 693.251 310.376 694.71 310.376 695.773C310.376 696.837 308.828 699.547 306.937 701.795C305.045 704.043 303.477 706.608 303.452 707.496C303.4 709.258 298.739 715.301 297.43 715.301C296.984 715.301 296.66 714.527 296.71 713.581ZM764.521 692.124C762.925 689.883 761.619 687.464 761.619 686.749C761.619 686.033 759.736 682.848 757.435 679.671C755.133 676.494 749.961 667.27 745.941 659.173C736.009 639.169 722.951 616.012 715.797 605.716C714.138 603.328 711.11 598.279 709.07 594.495L705.359 587.616L693.628 586.639C687.176 586.102 679.714 586.071 677.046 586.572C674.009 587.142 672.196 586.944 672.196 586.044C672.196 585.253 674.517 584.575 677.355 584.537C680.192 584.5 690.091 584.344 699.352 584.193C712.302 583.982 716.353 584.341 716.893 585.751C717.924 588.44 717.761 588.998 716.22 588.046C715.463 587.578 714.844 587.926 714.844 588.821C714.844 590.024 714.365 590.049 712.998 588.914C711.982 588.071 710.817 587.716 710.409 588.124C709.436 589.097 716.862 603.577 720.203 607.221C721.633 608.781 724.984 614.427 727.65 619.767C730.315 625.107 733.477 630.29 734.676 631.285C735.875 632.28 736.856 634.113 736.856 635.358C736.856 636.603 738.264 639.777 739.984 642.412C741.705 645.047 744.938 651.226 747.168 656.145C749.399 661.063 753.353 668.492 755.954 672.654C763.332 684.459 768.818 694.804 768.088 695.534C767.721 695.9 766.116 694.365 764.521 692.124ZM295.573 683.408C296.269 681.593 324.267 632.584 346.48 594.298C350.63 587.144 354.864 581.012 355.887 580.671C357.147 580.251 356.895 581.343 355.11 584.048C348.524 594.027 341.838 605.489 329.908 627.254C327.212 632.172 323.167 639.291 320.919 643.075C318.671 646.858 314.671 653.978 312.03 658.896C309.389 663.814 306.461 668.767 305.523 669.902C304.585 671.037 302.516 674.554 300.926 677.719C298.116 683.309 293.886 687.805 295.573 683.408ZM777.822 682.255C775.787 679.039 764.619 659.862 733.54 606.216C726.179 593.51 720.392 582.405 720.681 581.538C720.97 580.671 724.395 585.876 728.292 593.105C732.188 600.333 738.596 611.438 742.53 617.782C746.465 624.127 752.885 634.889 756.797 641.699C760.709 648.509 765.871 657.245 768.268 661.111C770.664 664.978 772.625 668.603 772.625 669.166C772.625 669.73 774.51 672.983 776.813 676.397C779.117 679.81 780.772 683.292 780.491 684.135C780.211 684.977 779.01 684.132 777.822 682.255ZM227.456 666.462C220.459 642.578 216.695 618.241 215.838 591.328C215.051 566.617 217.139 533.694 219.75 529.63C220.705 528.145 220.842 529.156 220.211 533.016C214.228 569.594 217.323 623.055 227.473 658.438C228.595 662.348 229.231 666.372 228.888 667.38C228.475 668.59 227.988 668.277 227.456 666.462ZM337.891 648.371C337.891 645.832 345.589 632.757 347.084 632.757C348.186 632.757 347.198 635.774 344.389 640.988C340.496 648.214 337.891 651.174 337.891 648.371ZM853.059 630.005C853.45 625.844 853.775 621.046 853.782 619.343C853.787 617.641 854.418 616.248 855.181 616.248C856.058 616.248 856.237 619.16 855.667 624.158C854.449 634.835 852.113 640.072 853.059 630.005ZM348.96 627.136C349.804 625.558 350.769 624.541 351.104 624.875C352.067 625.838 350.115 630.005 348.701 630.005C347.998 630.005 348.115 628.715 348.96 627.136ZM353.024 621.11C353.024 620.501 353.934 618.303 359.172 606.258C360.409 603.413 361.044 600.472 360.581 599.724C359.496 597.968 360.773 597.996 364.144 599.8C366.765 601.203 366.751 601.341 363.551 605.647C361.749 608.073 359.143 612.688 357.76 615.904C356.377 619.12 354.746 621.751 354.135 621.751C353.524 621.751 353.024 621.462 353.024 621.11ZM855.784 589.942C856.615 575.775 855.3 553.278 852.959 541.614C852.541 539.533 852.796 537.831 853.526 537.831C857.383 537.831 860.247 600.824 856.548 604.32C855.198 605.597 855.04 602.62 855.784 589.942ZM517.857 588.654C517.619 587.939 509.535 587.2 499.893 587.012C490.251 586.823 482.358 586.205 482.353 585.638C482.348 585.07 484.665 584.564 487.503 584.513C492.263 584.427 518.85 584.466 521.208 584.565C521.776 584.586 522.24 585.469 522.24 586.523C522.24 588.756 518.498 590.575 517.857 588.654ZM365.406 586.196C365.406 584.305 367.097 583.844 375.036 583.57C380.746 583.372 384.666 583.795 384.666 584.609C384.666 585.364 382.344 586.076 379.507 586.191C374.693 586.387 372.589 586.659 370.909 587.304C367.507 588.609 365.406 588.186 365.406 586.196ZM442.239 588.066C441.913 587.741 435.326 587.35 427.602 587.198C419.877 587.046 413.557 586.477 413.557 585.935C413.557 585.392 421.14 585.001 430.409 585.066C439.678 585.13 453.62 585.024 461.39 584.83C469.16 584.635 476.191 584.892 477.014 585.401C479.274 586.798 475.303 588.834 472.202 587.868C468.846 586.822 445.819 586.812 444.131 587.857C443.416 588.299 442.564 588.392 442.239 588.066ZM627.967 588.07C627.644 587.746 620.416 587.36 611.906 587.21C603.396 587.061 596.153 586.485 595.81 585.929C595.467 585.374 603.691 584.986 614.086 585.067C624.482 585.148 639.957 585.051 648.476 584.848C657.182 584.643 665.014 585.094 666.361 585.878C668.562 587.161 668.534 587.291 666.005 587.479C664.492 587.592 662.634 587.553 661.878 587.392C658.663 586.711 631.078 587.1 629.874 587.844C629.149 588.292 628.291 588.394 627.967 588.07ZM388.793 584.606C388.793 583.849 389.722 583.23 390.857 583.23C391.992 583.23 392.92 583.849 392.92 584.606C392.92 585.362 391.992 585.981 390.857 585.981C389.722 585.981 388.793 585.362 388.793 584.606ZM395.672 584.823C395.672 584.087 399.232 583.242 403.582 582.945C411.711 582.391 413.264 582.605 411.791 584.078C410.305 585.565 395.672 586.241 395.672 584.823ZM567.64 584.606C567.64 583.849 568.878 583.23 570.391 583.23C571.904 583.23 573.142 583.849 573.142 584.606C573.142 585.362 571.904 585.981 570.391 585.981C568.878 585.981 567.64 585.362 567.64 584.606ZM575.894 584.797C575.894 584.069 579.763 583.24 584.492 582.953C593.396 582.414 594.86 582.607 593.345 584.122C591.851 585.616 575.894 586.232 575.894 584.797ZM373.337 579.697C372.876 579.236 376.474 572.608 381.334 564.969C386.193 557.329 390.169 550.574 390.169 549.958C390.169 549.341 391.091 548.836 392.218 548.836C393.68 548.836 392.697 551.401 388.778 557.803C385.76 562.734 383.29 567.156 383.29 567.628C383.29 568.1 391.66 568.167 401.889 567.777C412.118 567.387 420.768 567.522 421.111 568.077C421.619 568.9 403.311 570.698 387.417 571.387C383.278 571.567 380.361 573.364 378.377 576.957C376.77 579.868 374.657 581.016 373.337 579.697ZM701.086 579.103C701.086 578.346 700.158 577.727 699.023 577.727C697.888 577.727 696.959 576.546 696.959 575.104C696.959 572.772 695.47 572.368 683.546 571.469C676.168 570.913 659.513 570.391 646.533 570.309C633.553 570.227 623.648 569.668 624.521 569.066C625.394 568.464 641.276 568.154 659.814 568.378C687.686 568.714 693.451 568.46 693.125 566.911C692.325 563.119 667.797 517.77 664.747 514.443C660.974 510.328 659.184 506.033 661.634 506.973C662.557 507.327 664.092 508.866 665.045 510.392C668.384 515.737 688.318 550.98 692.627 559.154C696.071 565.688 697.694 567.45 700.413 567.607C707.671 568.027 710.662 571.198 705.159 572.637C702.919 573.223 702.532 574.088 703.244 576.925C703.801 579.145 703.564 580.478 702.611 580.478C701.773 580.478 701.086 579.859 701.086 579.103ZM711.872 569.476C708.588 564.066 704.451 557.054 702.679 553.894C696.336 542.586 688.967 530.055 681.096 517.194C676.697 510.006 670.209 498.553 666.678 491.743C657.939 474.887 642.526 446.613 637.055 437.401C634.583 433.24 630.144 425.192 627.19 419.517C624.236 413.842 618.394 403.627 614.208 396.817C610.021 390.007 601.762 375.768 595.853 365.175C589.945 354.582 582.522 342.2 579.359 337.66C573.499 329.251 559.385 304.787 559.385 303.04C559.385 301.16 544.133 279.191 542.828 279.191C542.098 279.191 541.5 277.643 541.5 275.752C541.5 273.612 542.28 272.312 543.564 272.312C544.699 272.312 545.628 273.199 545.628 274.283C545.628 275.367 546.866 276.647 548.379 277.127C549.893 277.608 551.131 279.209 551.131 280.687C551.131 282.164 552.564 285.682 554.315 288.505C556.067 291.327 561.109 300.446 565.521 308.77C569.933 317.093 576.446 328.236 579.993 333.533C587.518 344.768 600.589 367.491 608.312 382.761C611.29 388.649 616.126 396.657 619.058 400.556C621.99 404.455 626.093 411.443 628.175 416.084C630.258 420.726 635.133 429.637 639.009 435.886C642.885 442.136 646.058 447.665 646.06 448.172C646.061 448.68 649.194 454.667 653.021 461.477C656.847 468.287 663.448 480.359 667.69 488.304C671.931 496.249 679.407 509.249 684.303 517.194C689.199 525.139 695.382 535.664 698.044 540.582C700.706 545.5 705.484 553.858 708.66 559.154C716.355 571.985 719.314 577.842 718.509 578.648C718.142 579.014 715.156 574.886 711.872 569.476ZM357.151 575.938C357.151 574.955 357.704 573.562 358.38 572.843C359.056 572.124 361.407 568.131 363.605 563.969C365.803 559.808 371.043 550.522 375.249 543.333C379.455 536.145 387.645 521.906 393.448 511.691C399.251 501.476 410.123 483.213 417.608 471.107C425.092 459 433.513 445.071 436.319 440.153C439.126 435.234 444.07 427.129 447.305 422.14C450.541 417.151 454.878 409.722 456.944 405.631C459.009 401.54 467.753 386.312 476.375 371.792C484.996 357.272 493.679 341.795 495.669 337.399C497.659 333.003 503.729 321.977 509.158 312.897C522.813 290.059 527.743 280.803 527.743 278.006C527.743 275.156 530.316 272.312 532.896 272.312C536.006 272.312 533.294 282.106 528.992 286.408C526.887 288.513 524.748 291.55 524.238 293.156C523.728 294.763 519.861 301.409 515.645 307.926C511.429 314.443 503.162 328.904 497.274 340.06C491.386 351.217 481.801 367.932 475.974 377.205C470.147 386.478 463.298 398.399 460.755 403.696C458.212 408.992 453.747 416.731 450.833 420.892C447.918 425.054 442.886 433.412 439.649 439.465C436.412 445.518 432.676 452.019 431.346 453.91C422.92 465.899 397.221 508.783 388.886 524.761C385.729 530.814 382.095 537.403 380.81 539.404C379.526 541.404 373.94 550.845 368.398 560.384C362.855 569.922 358.058 577.727 357.736 577.727C357.414 577.727 357.151 576.922 357.151 575.938ZM494.042 571.246C487.992 570.957 482.606 570.285 482.074 569.752C481.541 569.22 508.16 568.879 541.226 568.995C619.134 569.268 616.929 569.21 614.415 570.907C613.178 571.742 607.387 571.993 599.969 571.535C582.069 570.428 580.152 570.414 540.813 571.125C521.139 571.481 500.093 571.535 494.042 571.246ZM428.69 568.935C428.69 567.833 438.514 567.297 439.172 568.363C439.549 568.973 437.345 569.472 434.274 569.472C431.203 569.472 428.69 569.231 428.69 568.935ZM445.199 568.097C445.199 567.249 451.669 566.758 462.051 566.818C472.748 566.879 477.899 567.346 476.153 568.097C472.212 569.79 445.199 569.79 445.199 568.097ZM397.048 539.491C397.048 537.026 430.907 479.512 432.703 478.927C433.943 478.522 433.487 479.928 431.448 482.792C429.685 485.267 424.422 494.175 419.751 502.587C399.952 538.247 397.048 542.968 397.048 539.491ZM851.294 516.506C842.852 476.188 840 467.662 824.149 435.338C811.906 410.371 786.634 374.825 771.977 361.956C769.149 359.472 763.779 353.918 760.044 349.614C753.376 341.928 746.821 336.412 722.714 318.203C710.108 308.682 708.125 305.99 717.118 310.606C731.258 317.865 771.298 355.829 792.083 381.684C815.22 410.465 833.23 443.449 843.539 475.922C848.258 490.784 855.417 523.544 854.902 527.914C854.644 530.101 853.154 525.39 851.294 516.506ZM219.577 524.306C219.577 518.517 226.459 491.835 232.767 473.171C247.306 430.145 266.624 398.492 300.491 362.202C311.323 350.596 320.637 341.099 321.189 341.099C321.742 341.099 326.99 336.817 332.851 331.583C351.734 314.722 375.208 300.232 411.493 283.043C431.461 273.584 459.276 264.941 482.151 261.087C486.206 260.404 491.178 258.99 493.199 257.945C495.716 256.644 497.619 256.462 499.239 257.368C502.561 259.227 502.181 261.298 498.509 261.35C496.806 261.376 494.301 262.237 492.942 263.268C491.582 264.299 489.285 264.833 487.836 264.454C484.57 263.6 460.133 268.532 442.544 273.596C435.303 275.68 422.067 280.888 413.132 285.167C404.198 289.447 396.709 292.949 396.49 292.949C396.272 292.949 388.105 297.352 378.342 302.733C358.083 313.901 345.719 322.326 339.064 329.5C336.527 332.235 331.021 336.828 326.827 339.706C313.48 348.869 280.452 386.33 265.559 409.199C253.309 428.007 247.365 440.367 236.446 469.731C235.321 472.758 233.538 477.401 232.485 480.049C230.31 485.516 224.32 509.41 222.906 518.256C222.089 523.37 219.577 527.934 219.577 524.306ZM653.996 498.286C652.823 496.957 648.629 489.37 644.677 481.425C640.724 473.48 636.167 464.988 634.551 462.554C631.309 457.673 620.749 440.332 610.017 422.268C606.196 415.837 601.062 406.464 598.609 401.441C596.156 396.417 593.137 390.863 591.9 389.097C589.348 385.454 589.051 383.747 590.968 383.747C591.692 383.747 595.484 390.093 599.394 397.849C610.232 419.343 621.82 438.986 637.82 462.987C639.887 466.088 642.291 470.785 643.162 473.425C644.033 476.065 645.963 479.531 647.45 481.127C650.36 484.25 657.631 499.2 656.695 500.136C656.384 500.447 655.169 499.615 653.996 498.286ZM432.817 476.636C432.817 475.314 438.454 464.548 441.157 460.708C442.52 458.772 446.37 451.917 449.712 445.474C453.054 439.032 459.372 428.234 463.75 421.48C468.129 414.725 473.949 405.611 476.684 401.226C479.418 396.841 483.733 390.031 486.272 386.093C488.811 382.155 492.367 376.019 494.174 372.459C495.982 368.899 500.884 360.341 505.068 353.441C509.252 346.541 514.461 336.956 516.644 332.141C518.828 327.326 522.443 320.717 524.678 317.454C530.388 309.118 534.674 300.338 533.571 299.235C532.276 297.94 536.069 295.746 539.646 295.721C541.613 295.705 543.101 296.97 544.078 299.483C545.55 303.272 547.229 306.152 557.117 321.857C560.031 326.486 562.043 330.645 561.588 331.1C561.133 331.555 560.542 331.67 560.274 331.355C559.523 330.47 549.255 314.82 547.569 311.99C546.745 310.608 545.137 308.389 543.995 307.059C542.853 305.73 541.443 303.404 540.862 301.891C540.098 299.905 539.61 299.665 539.105 301.031C538.72 302.071 537.501 303.929 536.397 305.158C532.778 309.188 523.752 324.208 516.283 338.633C512.25 346.421 506.062 357.007 502.532 362.156C499.003 367.306 495.722 373.187 495.243 375.226C494.763 377.264 492.991 380.48 491.305 382.372C489.619 384.263 486.771 388.597 484.978 392.002C483.184 395.407 476.66 405.984 470.479 415.507C464.299 425.03 457.873 435.555 456.198 438.895C451.18 448.906 435.38 475.876 434.052 476.696C433.373 477.117 432.817 477.089 432.817 476.636ZM584.637 373.083C577.27 361.96 572.876 353.591 573.47 351.812C573.782 350.874 575.778 353.188 577.905 356.953C580.033 360.719 583.855 367.04 586.4 371.001C591.24 378.533 591.694 379.622 589.995 379.618C589.428 379.616 587.017 376.675 584.637 373.083ZM970.234 366.817C969.796 365.072 969.4 346.655 969.355 325.889C969.236 270.998 969.243 270.705 970.58 271.531C971.665 272.201 972.538 369.99 971.46 369.99C971.223 369.99 970.672 368.562 970.234 366.817ZM566.217 342.819C565.179 340.738 564.109 338.572 563.84 338.004C563.571 337.437 563.85 336.98 564.463 336.989C565.075 337 566.975 339.165 568.684 341.804C570.875 345.186 571.248 346.602 569.948 346.602C568.934 346.602 567.255 344.9 566.217 342.819ZM686.641 296.609C678.554 292.049 663.156 285.422 645.864 279.06C625.638 271.617 621.548 270.475 596.53 265.288C571.214 260.039 543.228 258.651 541.84 262.577C540.297 266.941 538.505 268.32 536.518 266.671C535.492 265.819 534.948 264.643 535.31 264.058C535.671 263.473 535.045 262.229 533.919 261.294C532.792 260.359 531.87 258.719 531.87 257.65C531.87 256.581 530.858 254.161 529.62 252.273C528.383 250.384 527.848 248.394 528.433 247.85C529.017 247.306 529.786 247.676 530.14 248.673C530.495 249.67 532.153 252.075 533.824 254.017C536.443 257.063 537.276 257.328 539.869 255.94C541.523 255.055 543.876 252.805 545.098 250.94C548.024 246.474 550.138 246.578 548.084 251.087C545.96 255.749 548.12 257.131 557.581 257.158C566.794 257.184 600.475 263.036 616.82 267.448C627.888 270.436 648.851 278.151 674.947 288.843C679.109 290.547 684.839 292.884 687.681 294.034C693.369 296.336 697.281 299.869 694.032 299.769C692.994 299.738 689.668 298.315 686.641 296.609ZM107.486 293C106.89 292.036 106.159 66.856 106.694 49.0987C106.736 47.7745 107.585 46.6911 108.586 46.6911C111.403 46.6911 111.387 45.0007 109.44 139.554C108.646 178.143 108.286 228.753 108.641 252.021C108.995 275.288 109.065 294.325 108.795 294.325C108.525 294.325 107.936 293.728 107.486 293ZM968.871 248.581C967.7 238.826 967.917 228.199 969.356 224.85C970.106 223.103 970.573 228.254 970.635 238.951C970.688 248.22 970.508 255.804 970.235 255.804C969.962 255.804 969.349 252.554 968.871 248.581ZM513.636 225.14C507.892 215.153 503.539 206.669 503.962 206.286C504.386 205.903 504.963 206.209 505.245 206.965C505.771 208.375 509.446 214.57 520.12 232.044C523.462 237.514 525.72 242.284 525.138 242.644C524.557 243.003 519.381 235.126 513.636 225.14ZM551.537 241.081C552.554 236.533 570.445 206.277 572.117 206.277C572.916 206.277 572.627 207.36 571.475 208.685C570.324 210.009 566.505 216.508 562.989 223.128C554.633 238.859 550.632 245.131 551.537 241.081ZM499.239 200.784C497.892 198.315 494.883 193.433 492.554 189.936C490.224 186.439 483.983 174.91 478.683 164.317C467.565 142.095 458.902 126.943 452.469 118.468C449.984 115.195 447.95 111.656 447.95 110.605C447.95 109.554 446.042 106.743 443.71 104.357C441.148 101.736 439.968 99.5221 440.729 98.7616C443.106 96.3845 445.967 99.0409 449.27 106.691C451.089 110.905 454.311 116.535 456.429 119.201C458.548 121.867 462.09 127.875 464.3 132.553C466.51 137.231 469.307 141.879 470.516 142.882C471.725 143.885 472.713 145.75 472.713 147.026C472.713 148.302 473.639 150.548 474.77 152.016C475.901 153.485 479.632 160.532 483.062 167.675C486.491 174.819 490.709 182.558 492.434 184.872C496.703 190.599 503.325 203.639 502.422 204.542C502.019 204.945 500.587 203.254 499.239 200.784ZM571.767 204.07C571.767 203.31 573.683 199.667 576.024 195.975C578.366 192.283 580.835 187.806 581.512 186.027C582.188 184.248 586.308 177.485 590.667 170.998C595.027 164.51 599.211 158.187 599.966 156.945C600.721 155.703 602.733 152.716 604.437 150.307C606.142 147.899 607.536 145.508 607.536 144.996C607.536 144.483 610.631 138.938 614.415 132.675C618.198 126.412 621.293 120.534 621.293 119.614C621.293 118.694 623.091 115.278 625.287 112.024C629.355 105.996 631.715 100.568 631.16 98.5176C630.991 97.8908 631.893 97.5813 633.165 97.8297C635.45 98.2758 637.209 103.097 635.087 103.097C633.816 103.097 622.669 121.156 622.669 123.215C622.669 123.975 619.883 128.75 616.478 133.827C613.073 138.904 610.287 143.95 610.287 145.041C610.287 146.131 609.006 148.438 607.44 150.167C603.439 154.586 587.115 179.717 583.952 186.329C578.829 197.037 571.767 207.319 571.767 204.07ZM968.848 180.138C968.323 166.897 967.708 141.205 967.482 123.045C967.211 101.281 966.524 89.0059 965.467 87.0312C963.912 84.1267 964.528 79.709 966.489 79.709C967.02 79.709 968.493 80.4828 969.763 81.4286C971.758 82.9144 971.934 84.7387 971.058 94.8421C970.5 101.274 970.372 126.656 970.773 151.247C971.572 200.245 970.365 218.368 968.848 180.138ZM130.154 40.2086L126.715 37.7489L133.593 36.6646C137.377 36.0682 142.02 35.6635 143.911 35.7653C145.803 35.8672 200.592 36.0965 265.664 36.2754C330.737 36.4543 430.719 37.0341 487.847 37.5645C544.974 38.0949 609.359 38.6149 630.924 38.7201C655.042 38.8376 665.367 39.2375 657.75 39.7586C650.941 40.2245 606.367 40.3954 558.697 40.1382C391.745 39.2375 178.811 39.1323 159.045 39.9406C148.073 40.3893 137.858 41.1867 136.345 41.7125C134.607 42.316 132.326 41.7644 130.154 40.2086ZM921.939 40.1566C897.579 39.9101 882.943 39.2413 882.043 38.3329C881.056 37.3372 892.622 36.9048 919.829 36.9202C979.73 36.9566 978.721 36.8994 976.864 39.9073C976.428 40.6117 972.549 41.0434 968.243 40.8667C963.937 40.6899 943.1 40.3707 921.939 40.1566ZM673.572 38.7804C673.573 37.531 854.873 37.6817 856.124 38.9323C856.608 39.4163 815.731 39.8123 765.288 39.8123C714.844 39.8123 673.572 39.3479 673.572 38.7804Z" fill="#151312"/>
</g>
<defs>
<clipPath id="clip0_1659_2542">
<rect width="1080" height="1080" fill="white" transform="translate(0 0.559998)"/>
</clipPath>
</defs>
</svg>
