<svg viewBox="0 0 129 128" fill="none" xmlns="http://www.w3.org/2000/svg">
<g filter="url(#filter0_d_904_2396)">
<rect x="4.75" width="120" height="120" rx="25" fill="white" fill-opacity="0.5" shape-rendering="crispEdges"/>
<rect x="5.25" y="0.5" width="119" height="119" rx="24.5" stroke="#ECC19A" shape-rendering="crispEdges"/>
<path d="M90.88 45.1202C89.86 46.1402 88.87 47.1302 88.84 48.1202C88.75 49.0802 89.77 50.0702 90.73 51.0002C92.17 52.5002 93.58 53.8502 93.52 55.3202C93.46 56.7902 91.93 58.3202 90.4 59.8202L78.01 72.2402L73.75 67.9802L86.5 55.2602L83.62 52.3802L79.36 56.6102L68.11 45.3602L79.63 33.8702C80.8 32.7002 82.75 32.7002 83.86 33.8702L90.88 40.8902C92.05 42.0002 92.05 43.9502 90.88 45.1202ZM37.75 75.7502L66.43 47.0402L77.68 58.2902L49 87.0002H37.75V75.7502Z" fill="#C6742B"/>
</g>
<defs>
<filter id="filter0_d_904_2396" x="0.75" y="0" width="128" height="128" filterUnits="userSpaceOnUse" color-interpolation-filters="sRGB">
<feFlood flood-opacity="0" result="BackgroundImageFix"/>
<feColorMatrix in="SourceAlpha" type="matrix" values="0 0 0 0 0 0 0 0 0 0 0 0 0 0 0 0 0 0 127 0" result="hardAlpha"/>
<feOffset dy="4"/>
<feGaussianBlur stdDeviation="2"/>
<feComposite in2="hardAlpha" operator="out"/>
<feColorMatrix type="matrix" values="0 0 0 0 0 0 0 0 0 0 0 0 0 0 0 0 0 0 0.25 0"/>
<feBlend mode="normal" in2="BackgroundImageFix" result="effect1_dropShadow_904_2396"/>
<feBlend mode="normal" in="SourceGraphic" in2="effect1_dropShadow_904_2396" result="shape"/>
</filter>
</defs>
</svg>
