<svg width="31" height="31" viewBox="0 0 31 31" fill="none" xmlns="http://www.w3.org/2000/svg">
<path fill-rule="evenodd" clip-rule="evenodd" d="M22.5918 30.3482C20.4632 30.2699 14.4308 29.4362 8.11315 23.12C1.79694 16.8023 0.964733 10.7714 0.884913 8.64134C0.766659 5.39529 3.25294 2.24236 6.12501 1.01104C6.47087 0.8617 6.84961 0.804841 7.22407 0.846045C7.59854 0.887249 7.95585 1.0251 8.26096 1.24607C10.626 2.96961 12.2579 5.5771 13.6592 7.62732C13.9675 8.07776 14.0994 8.62589 14.0296 9.16726C13.9598 9.70864 13.6933 10.2054 13.2808 10.563L10.3969 12.7048C10.2576 12.8054 10.1595 12.9532 10.1209 13.1207C10.0823 13.2881 10.1058 13.4639 10.187 13.6154C10.8404 14.8023 12.0022 16.5702 13.3326 17.9006C14.6629 19.2309 16.515 20.4696 17.7848 21.1969C17.944 21.2863 18.1314 21.3112 18.3084 21.2667C18.4855 21.2222 18.6388 21.1115 18.7367 20.9574L20.614 18.1001C20.9591 17.6417 21.4683 17.3345 22.0348 17.2431C22.6013 17.1516 23.1812 17.2828 23.6531 17.6094C25.7329 19.0491 28.16 20.6529 29.9368 22.9278C30.1757 23.2351 30.3277 23.601 30.3768 23.9871C30.426 24.3733 30.3705 24.7655 30.2162 25.1229C28.9789 28.0098 25.8482 30.4679 22.5918 30.3482Z" fill="#C6742B"/>
</svg>
