<svg width="77" height="62"  viewBox="0 0 77 62" fill="none" xmlns="http://www.w3.org/2000/svg">
<path d="M25.9568 10.0997C33.2795 4.20348 43.7204 4.20347 51.0432 10.0997L57.6533 15.4222C67.5958 23.4278 67.5958 38.5722 57.6533 46.5778L51.0432 51.9003C43.7205 57.7965 33.2796 57.7965 25.9568 51.9003L19.3467 46.5778C9.40424 38.5722 9.40423 23.4278 19.3467 15.4222L25.9568 10.0997Z" fill="#5A3213"/>
<path d="M26.9955 16.7121C33.7119 11.3041 43.2882 11.3041 50.0046 16.7121C59.1237 24.0548 59.1237 37.9452 50.0046 45.2879C43.2882 50.6959 33.7119 50.6959 26.9955 45.2879C17.8764 37.9452 17.8764 24.0548 26.9955 16.7121Z" stroke="white"/>
<ellipse cx="38.5001" cy="30.9998" rx="7.72378" ry="6.21915" fill="white"/>
</svg>
