<svg width="112" height="112" viewBox="0 0 112 112" fill="none" xmlns="http://www.w3.org/2000/svg">
<path d="M41.7096 14.1421C49.5201 6.33163 62.1833 6.33165 69.9938 14.1421L97.5612 41.7096C105.372 49.5201 105.372 62.1833 97.5612 69.9938L69.9938 97.5612C62.1833 105.372 49.52 105.372 41.7095 97.5612L14.1421 69.9938C6.33163 62.1833 6.33165 49.52 14.1421 41.7095L41.7096 14.1421Z" fill="#5A3213"/>
<path d="M42.0632 26.7594C49.6785 19.1441 62.0252 19.1441 69.6404 26.7594L84.9443 42.0632C92.5595 49.6785 92.5595 62.0252 84.9443 69.6404L69.6404 84.9443C62.0252 92.5595 49.6784 92.5595 42.0632 84.9443L26.7594 69.6404C19.1441 62.0252 19.1441 49.6784 26.7594 42.0632L42.0632 26.7594Z" stroke="white"/>
<circle cx="55.8518" cy="55.8513" r="11.2048" fill="white"/>
</svg>
