<svg viewBox="0 0 129 128" fill="none" xmlns="http://www.w3.org/2000/svg">
<g filter="url(#filter0_d_904_2429)">
<rect x="4.75" width="120" height="120" rx="25" fill="white" fill-opacity="0.5" shape-rendering="crispEdges"/>
<rect x="5.25" y="0.5" width="119" height="119" rx="24.5" stroke="#ECC19A" shape-rendering="crispEdges"/>
<path d="M85.75 51.9V36H76.75V43.8L64.75 33L34.75 60H43.75V84H61.75V66H67.75V84H85.75V60H94.75L85.75 51.9ZM79.75 78H73.75V60H55.75V78H49.75V54.57L64.75 41.07L79.75 54.57V78Z" fill="#C6742B"/>
<path d="M58.75 54H70.75C70.75 50.7 68.05 48 64.75 48C61.45 48 58.75 50.7 58.75 54Z" fill="#C6742B"/>
</g>
<defs>
<filter id="filter0_d_904_2429" x="0.75" y="0" width="128" height="128" filterUnits="userSpaceOnUse" color-interpolation-filters="sRGB">
<feFlood flood-opacity="0" result="BackgroundImageFix"/>
<feColorMatrix in="SourceAlpha" type="matrix" values="0 0 0 0 0 0 0 0 0 0 0 0 0 0 0 0 0 0 127 0" result="hardAlpha"/>
<feOffset dy="4"/>
<feGaussianBlur stdDeviation="2"/>
<feComposite in2="hardAlpha" operator="out"/>
<feColorMatrix type="matrix" values="0 0 0 0 0 0 0 0 0 0 0 0 0 0 0 0 0 0 0.25 0"/>
<feBlend mode="normal" in2="BackgroundImageFix" result="effect1_dropShadow_904_2429"/>
<feBlend mode="normal" in="SourceGraphic" in2="effect1_dropShadow_904_2429" result="shape"/>
</filter>
</defs>
</svg>
