<svg width="16" height="12" viewBox="0 0 16 12" fill="none" xmlns="http://www.w3.org/2000/svg">
<path d="M6.5 8.57143L10.3925 6L6.5 3.42857V8.57143ZM15.17 1.86C15.2675 2.26286 15.335 2.80286 15.38 3.48857C15.4325 4.17429 15.455 4.76571 15.455 5.28L15.5 6C15.5 7.87714 15.38 9.25714 15.17 10.14C14.9825 10.9114 14.5475 11.4086 13.8725 11.6229C13.52 11.7343 12.875 11.8114 11.885 11.8629C10.91 11.9229 10.0175 11.9486 9.1925 11.9486L8 12C4.8575 12 2.9 11.8629 2.1275 11.6229C1.4525 11.4086 1.0175 10.9114 0.83 10.14C0.7325 9.73714 0.665 9.19714 0.62 8.51143C0.5675 7.82571 0.545 7.23429 0.545 6.72L0.5 6C0.5 4.12286 0.62 2.74286 0.83 1.86C1.0175 1.08857 1.4525 0.591429 2.1275 0.377143C2.48 0.265714 3.125 0.188571 4.115 0.137143C5.09 0.0771427 5.9825 0.0514285 6.8075 0.0514285L8 0C11.1425 0 13.1 0.137143 13.8725 0.377143C14.5475 0.591429 14.9825 1.08857 15.17 1.86Z" fill="#420C03"/>
</svg>
