<svg width="31" height="22" viewBox="0 0 31 22" fill="none" xmlns="http://www.w3.org/2000/svg">
<path d="M12.271 15.6235L20.229 11.0235L12.271 6.42354V15.6235ZM29.9963 3.61754C30.1956 4.33821 30.3336 5.30421 30.4256 6.53087C30.533 7.75753 30.579 8.81553 30.579 9.73552L30.671 11.0235C30.671 14.3815 30.4256 16.8502 29.9963 18.4295C29.613 19.8095 28.7236 20.6988 27.3436 21.0822C26.623 21.2815 25.3043 21.4195 23.2803 21.5115C21.287 21.6188 19.4623 21.6648 17.7757 21.6648L15.3377 21.7568C8.91303 21.7568 4.91105 21.5115 3.33172 21.0822C1.95172 20.6988 1.06239 19.8095 0.679059 18.4295C0.479726 17.7088 0.341727 16.7428 0.249727 15.5162C0.142394 14.2895 0.0963941 13.2315 0.0963941 12.3115L0.00439453 11.0235C0.00439453 7.66553 0.249727 5.19687 0.679059 3.61754C1.06239 2.23755 1.95172 1.34822 3.33172 0.964887C4.05238 0.765554 5.37104 0.627554 7.39504 0.535554C9.38836 0.428221 11.213 0.382222 12.8997 0.382222L15.3377 0.290222C21.7623 0.290222 25.7643 0.535555 27.3436 0.964887C28.7236 1.34822 29.613 2.23755 29.9963 3.61754Z" fill="#420C03"/>
</svg>
